<svg xmlns="http://www.w3.org/2000/svg" viewBox="0 0 840 40" width="840" height="40" role="img" aria-labelledby="t">
<title id="t">A stopped player's oscilloscope: a flat line with a faint hum, carrying small hexagons along it like a conveyor belt</title>
<style>.sh{fill:#000;opacity:.62}
.hm{animation:hm .9s linear infinite}@keyframes hm{to{transform:translateX(-24px)}}
.it{animation:it 16s linear infinite}@keyframes it{to{transform:translateX(352px)}}
@media (prefers-reduced-motion:reduce){*{animation-play-state:paused!important}}</style>
<defs><clipPath id="p"><rect width="840" height="40" rx="10"/></clipPath><clipPath id="w"><rect x="228" y="4" width="388" height="32"/></clipPath>
<linearGradient id="fl"><stop offset="0" stop-color="#000"/><stop offset="1" stop-color="#000" stop-opacity="0"/></linearGradient><linearGradient id="fr"><stop offset="0" stop-color="#000" stop-opacity="0"/><stop offset="1" stop-color="#000"/></linearGradient>
<g id="hx"><path d="M0 -6.5L5.6 -3.3L5.6 3.2L0 6.5L-5.6 3.3L-5.6 -3.3z" fill="#05070c" stroke-width="1.7" stroke-linejoin="round"/><circle r="1.8" fill="currentColor" stroke="none"/></g>
<path id="g1b" d="M0 6h1v2h-1zM1 4h1v2h-1zM2 2h1v2h-1zM3 0h1v2h-1z"/><path id="h1b" d="M-0.5 6.5h2v0.5h-2zM-0.5 7h2.5v1h-2.5zM-0.5 6h3.5v0.5h-3.5zM0 8h2v0.5h-2zM0 5.5h3v0.5h-3zM0.5 4.5h2v0.5h-2zM0.5 5h2.5v0.5h-2.5zM0.5 4h3.5v0.5h-3.5zM1 8.5h1v0.5h-1zM1 3.5h3v0.5h-3zM1.5 2.5h2v0.5h-2zM1.5 3h2.5v0.5h-2.5zM1.5 2h3.5v0.5h-3.5zM2 6.5h1v0.5h-1zM2 1.5h3v0.5h-3zM2.5 0h2v1h-2zM2.5 1h2.5v0.5h-2.5zM3 -0.5h1v0.5h-1zM3 4.5h1v0.5h-1zM4 2.5h1v0.5h-1z"/>
<path id="g1c" d="M0 1h1v5h-1zM1 0h3v1h-3zM1 6h3v1h-3zM4 1h1v5h-1z"/><path id="h1c" d="M-0.5 1.5h2v0.5h-2zM-0.5 2h2.5v3.5h-2.5zM-0.5 1h6v0.5h-6zM-0.5 5.5h6.5v0.5h-6.5zM0 0.5h5v0.5h-5zM0 6h6v0.5h-6zM0.5 0h4v0.5h-4zM0.5 6.5h4v0.5h-4zM1 -0.5h3v0.5h-3zM1 7h4v0.5h-4zM2 7.5h3v0.5h-3zM2 1.5h3.5v0.5h-3.5zM3.5 2h2.5v3.5h-2.5zM5 6.5h1v0.5h-1z"/>
<path id="g1d" d="M0 1h2v1h-2zM0 6h3v1h-3zM1 0h1v1h-1zM1 2h1v4h-1z"/><path id="h1d" d="M-0.5 1h3.5v1h-3.5zM-0.5 6h4v1h-4zM0 0.5h2.5v0.5h-2.5zM0 2h3v0.5h-3zM0 5.5h3v0.5h-3zM0 7h4v0.5h-4zM0.5 0h2v0.5h-2zM0.5 2.5h2.5v3h-2.5zM1 -0.5h1v0.5h-1zM1 7.5h3v0.5h-3z"/>
<path id="g1e" d="M0 1h1v1h-1zM0 6h5v1h-5zM1 5h1v1h-1zM1 0h3v1h-3zM2 4h1v1h-1zM3 3h1v1h-1zM4 1h1v2h-1z"/><path id="h1e" d="M-0.5 1.5h2v0.5h-2zM-0.5 1h6v0.5h-6zM-0.5 6h6v1h-6zM0 2h2v0.5h-2zM0 0.5h5v0.5h-5zM0 5.5h5v0.5h-5zM0 7h6v0.5h-6zM0.5 5h3.5v0.5h-3.5zM0.5 0h4v0.5h-4zM1 2.5h1v0.5h-1zM1 4.5h2.5v0.5h-2.5zM1 -0.5h3v0.5h-3zM1 7.5h5v0.5h-5zM1.5 4h3.5v0.5h-3.5zM2 3.5h2.5v0.5h-2.5zM2 1.5h3.5v0.5h-3.5zM2.5 3h3.5v0.5h-3.5zM3 2.5h3v0.5h-3zM3.5 2h2.5v0.5h-2.5zM4 4.5h1v0.5h-1zM5 3.5h1v0.5h-1z"/>
<path id="g1i" d="M0 1h1v2h-1zM0 4h1v2h-1zM0 3h4v1h-4zM1 0h3v1h-3zM1 6h3v1h-3zM4 4h1v2h-1z"/><path id="h1i" d="M-0.5 1.5h2v0.5h-2zM-0.5 2h2.5v0.5h-2.5zM-0.5 5h2.5v0.5h-2.5zM-0.5 2.5h4.5v0.5h-4.5zM-0.5 3h5v0.5h-5zM-0.5 1h5.5v0.5h-5.5zM-0.5 3.5h5.5v0.5h-5.5zM-0.5 4h6v1h-6zM-0.5 5.5h6.5v0.5h-6.5zM0 0.5h4.5v0.5h-4.5zM0 6h6v0.5h-6zM0.5 0h4v0.5h-4zM0.5 6.5h4v0.5h-4zM1 -0.5h3v0.5h-3zM1 7h4v0.5h-4zM2 1.5h3v0.5h-3zM2 7.5h3v0.5h-3zM3.5 5h2.5v0.5h-2.5zM5 6.5h1v0.5h-1z"/>
<path id="g1m" d="M0 2h1v1h-1zM0 6h1v1h-1z"/><path id="h1m" d="M-0.5 2h2v1h-2zM-0.5 6h2v1h-2zM0 1.5h1v0.5h-1zM0 5.5h1v0.5h-1zM0 3h2v0.5h-2zM0 7h2v0.5h-2zM1 3.5h1v0.5h-1zM1 7.5h1v0.5h-1z"/>
<path id="g2p" d="M0 5h1v1h-1zM1 2h2v1h-2zM1 4h3v1h-3zM1 6h3v1h-3zM3 3h1v1h-1zM3 5h1v1h-1z"/><path id="h2p" d="M-0.5 5h5.5v1h-5.5zM0 4.5h5v0.5h-5zM0 6h5v0.5h-5zM0.5 2h3v0.5h-3zM0.5 2.5h3.5v0.5h-3.5zM0.5 4h4.5v0.5h-4.5zM0.5 6.5h4.5v0.5h-4.5zM1 1.5h2v0.5h-2zM1 3h3.5v1h-3.5zM1 7h4v0.5h-4zM2 7.5h3v0.5h-3z"/>
<path id="g2q" d="M0 0h1v2h-1zM0 3h1v3h-1zM0 2h3v1h-3zM0 6h3v1h-3zM3 3h1v3h-1z"/><path id="h2q" d="M-0.5 0h2v1h-2zM-0.5 1h2.5v0.5h-2.5zM-0.5 4h2.5v1.5h-2.5zM-0.5 1.5h3.5v0.5h-3.5zM-0.5 2h4v0.5h-4zM-0.5 6.5h4v0.5h-4zM-0.5 2.5h4.5v0.5h-4.5zM-0.5 3h5v1h-5zM-0.5 5.5h5.5v1h-5.5zM0 -0.5h1v0.5h-1zM0 7h4v0.5h-4zM1 7.5h3v0.5h-3zM2.5 4h2.5v1.5h-2.5zM4 6.5h1v0.5h-1z"/>
<path id="g2s" d="M0 3h1v3h-1zM1 2h3v1h-3zM1 6h3v1h-3zM3 0h1v2h-1zM3 3h1v3h-1z"/><path id="h2s" d="M-0.5 3.5h2v0.5h-2zM-0.5 4h2.5v1.5h-2.5zM-0.5 3h5.5v0.5h-5.5zM-0.5 5.5h5.5v0.5h-5.5zM0 2.5h5v0.5h-5zM0 6h5v0.5h-5zM0.5 2h4.5v0.5h-4.5zM0.5 6.5h4.5v0.5h-4.5zM1 1.5h4v0.5h-4zM1 7h4v0.5h-4zM2 3.5h3v0.5h-3zM2 7.5h3v0.5h-3zM2.5 0h2v1h-2zM2.5 1h2.5v0.5h-2.5zM2.5 4h2.5v1.5h-2.5zM3 -0.5h1v0.5h-1z"/>
<path id="g2t" d="M0 3h1v1h-1zM0 5h1v1h-1zM0 4h4v1h-4zM1 2h2v1h-2zM1 6h3v1h-3zM3 3h1v1h-1z"/><path id="h2t" d="M-0.5 3h5v1h-5zM-0.5 4h5.5v2h-5.5zM0 2.5h4v0.5h-4zM0 6h4.5v0.5h-4.5zM0.5 2h3v0.5h-3zM0.5 6.5h4v0.5h-4zM1 1.5h2v0.5h-2zM1 7h4v0.5h-4zM2 7.5h3v0.5h-3z"/>
<path id="g2w" d="M0 0h1v2h-1zM0 3h1v4h-1zM0 2h3v1h-3zM3 3h1v4h-1z"/><path id="h2w" d="M-0.5 0h2v1h-2zM-0.5 1h2.5v0.5h-2.5zM-0.5 4h2.5v3h-2.5zM-0.5 1.5h3.5v0.5h-3.5zM-0.5 2h4v0.5h-4zM-0.5 2.5h4.5v0.5h-4.5zM-0.5 3h5v1h-5zM0 -0.5h1v0.5h-1zM0 7h2v0.5h-2zM1 7.5h1v0.5h-1zM2.5 4h2.5v3h-2.5zM3 7h2v0.5h-2zM4 7.5h1v0.5h-1z"/>
<path id="g2x" d="M0 0h1v1h-1zM0 2h1v5h-1z"/><path id="h2x" d="M-0.5 0h2v1h-2zM-0.5 2h2v1h-2zM-0.5 3h2.5v4h-2.5zM0 -0.5h1v0.5h-1zM0 1h2v1h-2zM0 7h2v0.5h-2zM1 7.5h1v0.5h-1z"/>
<path id="g2z" d="M0 0h1v4h-1zM0 5h1v2h-1zM0 4h2v1h-2zM2 3h1v1h-1zM2 5h1v1h-1zM3 2h1v1h-1zM3 6h1v1h-1z"/><path id="h2z" d="M-0.5 0h2v1h-2zM-0.5 1h2.5v1.5h-2.5zM-0.5 6.5h2.5v0.5h-2.5zM-0.5 3.5h4v0.5h-4zM-0.5 5h4v0.5h-4zM-0.5 4h4.5v1h-4.5zM-0.5 5.5h4.5v0.5h-4.5zM-0.5 2.5h5v0.5h-5zM-0.5 6h5v0.5h-5zM-0.5 3h5.5v0.5h-5.5zM0 -0.5h1v0.5h-1zM0 7h2v0.5h-2zM1 7.5h1v0.5h-1zM2.5 2h2v0.5h-2zM2.5 6.5h2v0.5h-2zM3 1.5h1v0.5h-1zM3 7h2v0.5h-2zM4 3.5h1v0.5h-1zM4 7.5h1v0.5h-1z"/>
<path id="g30" d="M0 0h1v7h-1z"/><path id="h30" d="M-0.5 0h2v1h-2zM-0.5 1h2.5v6h-2.5zM0 -0.5h1v0.5h-1zM0 7h2v0.5h-2zM1 7.5h1v0.5h-1z"/>
<path id="g31" d="M0 3h1v4h-1zM0 2h2v1h-2zM2 3h1v4h-1zM3 2h1v1h-1zM4 3h1v4h-1z"/><path id="h31" d="M-0.5 2h5v0.5h-5zM-0.5 2.5h5.5v0.5h-5.5zM-0.5 3h6v1h-6zM-0.5 4h6.5v3h-6.5zM0 1.5h2v0.5h-2zM0 7h6v0.5h-6zM1 7.5h1v0.5h-1zM3 1.5h1v0.5h-1zM3 7.5h1v0.5h-1zM5 7.5h1v0.5h-1z"/>
<path id="g33" d="M0 3h1v3h-1zM1 2h2v1h-2zM1 6h2v1h-2zM3 3h1v3h-1z"/><path id="h33" d="M-0.5 3.5h2v0.5h-2zM-0.5 4h2.5v1.5h-2.5zM-0.5 3h5v0.5h-5zM-0.5 5.5h5.5v0.5h-5.5zM0 2.5h4v0.5h-4zM0 6h5v0.5h-5zM0.5 2h3v0.5h-3zM0.5 6.5h3v0.5h-3zM1 1.5h2v0.5h-2zM1 7h3v0.5h-3zM2 7.5h2v0.5h-2zM2 3.5h2.5v0.5h-2.5zM2.5 4h2.5v1.5h-2.5zM4 6.5h1v0.5h-1z"/>
<path id="g34" d="M0 3h1v3h-1zM0 7h1v2h-1zM0 2h3v1h-3zM0 6h3v1h-3zM3 3h1v3h-1z"/><path id="h34" d="M-0.5 4h2.5v1.5h-2.5zM-0.5 8h2.5v1h-2.5zM-0.5 2h4v0.5h-4zM-0.5 6.5h4v0.5h-4zM-0.5 2.5h4.5v0.5h-4.5zM-0.5 7h4.5v1h-4.5zM-0.5 3h5v1h-5zM-0.5 5.5h5.5v1h-5.5zM0 9h2v0.5h-2zM0 1.5h3v0.5h-3zM1 9.5h1v0.5h-1zM2.5 4h2.5v1.5h-2.5zM4 6.5h1v0.5h-1z"/>
<path id="g36" d="M0 2h1v1h-1zM0 4h1v3h-1zM0 3h2v1h-2zM2 2h1v1h-1z"/><path id="h36" d="M-0.5 5h2.5v2h-2.5zM-0.5 3.5h3v0.5h-3zM-0.5 4h3.5v1h-3.5zM-0.5 2h4v1h-4zM-0.5 3h4.5v0.5h-4.5zM0 1.5h1v0.5h-1zM0 7h2v0.5h-2zM1 7.5h1v0.5h-1zM2 1.5h1v0.5h-1zM3 3.5h1v0.5h-1z"/>
<path id="g37" d="M0 3h1v1h-1zM0 6h2v1h-2zM1 4h1v1h-1zM1 2h2v1h-2zM2 5h1v1h-1z"/><path id="h37" d="M-0.5 6.5h3v0.5h-3zM-0.5 3h4.5v1h-4.5zM-0.5 6h4.5v0.5h-4.5zM0 4h2.5v0.5h-2.5zM0 7h3v0.5h-3zM0 2.5h3.5v0.5h-3.5zM0 5.5h3.5v0.5h-3.5zM0.5 4.5h2.5v0.5h-2.5zM0.5 2h3v0.5h-3zM1 1.5h2v0.5h-2zM1 7.5h2v0.5h-2zM1 5h2.5v0.5h-2.5zM3 6.5h1v0.5h-1z"/>
<path id="g38" d="M0 2h3v1h-3zM1 0h1v2h-1zM1 3h1v3h-1zM2 6h1v1h-1z"/><path id="h38" d="M-0.5 2h4v1h-4zM0 1.5h3v0.5h-3zM0 3h4v0.5h-4zM0.5 0h2v1h-2zM0.5 1h2.5v0.5h-2.5zM0.5 4h2.5v2h-2.5zM0.5 3.5h3.5v0.5h-3.5zM1 -0.5h1v0.5h-1zM1 6h2.5v0.5h-2.5zM1.5 6.5h2v0.5h-2zM2 7h2v0.5h-2zM3 7.5h1v0.5h-1z"/>
<path id="g39" d="M0 2h1v4h-1zM1 6h3v1h-3zM3 2h1v4h-1z"/><path id="h39" d="M-0.5 2h2v1h-2zM-0.5 3h2.5v2.5h-2.5zM-0.5 5.5h5.5v0.5h-5.5zM0 1.5h1v0.5h-1zM0 6h5v0.5h-5zM0.5 6.5h4.5v0.5h-4.5zM1 7h4v0.5h-4zM2 7.5h3v0.5h-3zM2.5 2h2v1h-2zM2.5 3h2.5v2.5h-2.5zM3 1.5h1v0.5h-1z"/>
<path id="g7fk" d="M0 1h5v5h-5z"/><path id="h7fk" d="M-0.5 1h6v1h-6zM-0.5 2h6.5v4h-6.5zM0 0.5h5v0.5h-5zM0 6h6v0.5h-6zM1 6.5h5v0.5h-5z"/></defs>
<g clip-path="url(#p)"><rect width="840" height="40" fill="#000"/>
<g clip-path="url(#w)"><g class="hm" fill="none" stroke="#00cfff" stroke-linecap="round"><path d="M204 20q6 -3.4 12 0t12 0t12 0t12 0t12 0t12 0t12 0t12 0t12 0t12 0t12 0t12 0t12 0t12 0t12 0t12 0t12 0t12 0t12 0t12 0t12 0t12 0t12 0t12 0t12 0t12 0t12 0t12 0t12 0t12 0t12 0t12 0t12 0t12 0t12 0t12 0t12 0" stroke-width="5" stroke-opacity=".16"/><path d="M204 20q6 -3.4 12 0t12 0t12 0t12 0t12 0t12 0t12 0t12 0t12 0t12 0t12 0t12 0t12 0t12 0t12 0t12 0t12 0t12 0t12 0t12 0t12 0t12 0t12 0t12 0t12 0t12 0t12 0t12 0t12 0t12 0t12 0t12 0t12 0t12 0t12 0t12 0t12 0" stroke-width="1.5"/></g>
<g class="it"><use href="#hx" x="-124" y="20" stroke="#a855f7" color="#a855f7"/><use href="#hx" x="-36" y="20" stroke="#ec4899" color="#ec4899"/><use href="#hx" x="52" y="20" stroke="#38bdf8" color="#38bdf8"/><use href="#hx" x="140" y="20" stroke="#e8d44d" color="#e8d44d"/><use href="#hx" x="228" y="20" stroke="#a855f7" color="#a855f7"/><use href="#hx" x="316" y="20" stroke="#ec4899" color="#ec4899"/><use href="#hx" x="404" y="20" stroke="#38bdf8" color="#38bdf8"/><use href="#hx" x="492" y="20" stroke="#e8d44d" color="#e8d44d"/><use href="#hx" x="580" y="20" stroke="#a855f7" color="#a855f7"/><use href="#hx" x="668" y="20" stroke="#ec4899" color="#ec4899"/></g></g>
<rect x="228" y="4" width="26" height="32" fill="url(#fl)"/><rect x="590" y="4" width="26" height="32" fill="url(#fr)"/>
<path d="M225 12v16M619 12v16" stroke="#56627a" stroke-width="2"/>
<g transform="translate(18 13) scale(2)"><g class="sh"><use href="#h7fk"/><use href="#h37" x="9"/><use href="#h38" x="13"/><use href="#h33" x="17"/><use href="#h34" x="22"/><use href="#h34" x="27"/><use href="#h2t" x="32"/><use href="#h2s" x="37"/><use href="#h1c" x="48"/><use href="#h1m" x="54"/><use href="#h1c" x="56"/><use href="#h1c" x="62"/><use href="#h1b" x="71"/><use href="#h1i" x="79"/><use href="#h1m" x="85"/><use href="#h1e" x="87"/><use href="#h1d" x="93"/></g><g fill="#ec4899"><use href="#g7fk"/></g><g fill="#d7dfeb"><use href="#g37" x="9"/><use href="#g38" x="13"/><use href="#g33" x="17"/><use href="#g34" x="22"/><use href="#g34" x="27"/><use href="#g2t" x="32"/><use href="#g2s" x="37"/></g><g fill="#9fb2c8"><use href="#g1c" x="48"/><use href="#g1m" x="54"/><use href="#g1c" x="56"/><use href="#g1c" x="62"/><use href="#g1b" x="71"/><use href="#g1i" x="79"/><use href="#g1m" x="85"/><use href="#g1e" x="87"/><use href="#g1d" x="93"/></g></g>
<g transform="translate(634 13) scale(2)"><g class="sh"><use href="#h1c"/><use href="#h2z" x="9"/><use href="#h2q" x="14"/><use href="#h34" x="19"/><use href="#h37" x="24"/><use href="#h38" x="34"/><use href="#h2w" x="38"/><use href="#h2t" x="43"/><use href="#h2w" x="51"/><use href="#h39" x="56"/><use href="#h31" x="61"/><use href="#h2x" x="70"/><use href="#h37" x="72"/><use href="#h36" x="79"/><use href="#h2t" x="83"/><use href="#h2p" x="88"/><use href="#h30" x="93"/></g><g fill="#ffffff"><use href="#g1c"/><use href="#g2z" x="9"/><use href="#g2q" x="14"/><use href="#g34" x="19"/><use href="#g37" x="24"/></g><g fill="#9fb2c8"><use href="#g38" x="34"/><use href="#g2w" x="38"/><use href="#g2t" x="43"/><use href="#g2w" x="51"/><use href="#g39" x="56"/><use href="#g31" x="61"/><use href="#g2x" x="70"/><use href="#g37" x="72"/><use href="#g36" x="79"/><use href="#g2t" x="83"/><use href="#g2p" x="88"/><use href="#g30" x="93"/></g></g>
<rect x="1.5" y="1.5" width="837" height="37" rx="8.5" fill="none" stroke="#38bdf8" stroke-opacity=".55" stroke-width="3"/></g>
</svg>
