<svg xmlns="http://www.w3.org/2000/svg" xmlns:xlink="http://www.w3.org/1999/xlink" viewBox="0 0 960 424" role="img" aria-labelledby="title desc">
<title id="title">README.NFO — the header exchange door game</title><desc id="desc">A space-station door game with stencil-like title, planet vignette, second-person narration, catalogue choices and a command prompt.</desc>
<defs><pattern id="planet" width="7" height="7" patternUnits="userSpaceOnUse"><rect width="3" height="3" fill="#1939a3"/></pattern></defs><style>.cursor{animation:blink 2s steps(1) infinite}@keyframes blink{50%{opacity:.2}}
@media(prefers-reduced-motion:reduce){*{animation:none!important;transition:none!important}}</style>
<rect width="960" height="424" fill="#02050c"/><rect x="72" y="23" width="2" height="2" fill="#c7d0de"/><rect x="245" y="90" width="1" height="1" fill="#556da3"/><rect x="418" y="157" width="1" height="1" fill="#556da3"/><rect x="591" y="39" width="1" height="1" fill="#c7d0de"/><rect x="764" y="106" width="1" height="1" fill="#556da3"/><rect x="937" y="173" width="1" height="1" fill="#556da3"/><rect x="180" y="55" width="1" height="1" fill="#c7d0de"/><rect x="353" y="122" width="2" height="2" fill="#556da3"/><rect x="526" y="4" width="1" height="1" fill="#556da3"/><rect x="699" y="71" width="1" height="1" fill="#c7d0de"/><rect x="872" y="138" width="1" height="1" fill="#556da3"/><rect x="115" y="20" width="1" height="1" fill="#556da3"/><rect x="288" y="87" width="1" height="1" fill="#c7d0de"/><rect x="461" y="154" width="1" height="1" fill="#556da3"/><rect x="634" y="36" width="2" height="2" fill="#556da3"/><rect x="807" y="103" width="1" height="1" fill="#c7d0de"/><rect x="50" y="170" width="1" height="1" fill="#556da3"/><rect x="223" y="52" width="1" height="1" fill="#556da3"/><rect x="396" y="119" width="1" height="1" fill="#c7d0de"/><rect x="569" y="1" width="1" height="1" fill="#556da3"/><rect x="742" y="68" width="1" height="1" fill="#556da3"/><rect x="915" y="135" width="2" height="2" fill="#c7d0de"/><rect x="158" y="17" width="1" height="1" fill="#556da3"/><rect x="331" y="84" width="1" height="1" fill="#556da3"/><rect x="504" y="151" width="1" height="1" fill="#c7d0de"/><rect x="677" y="33" width="1" height="1" fill="#556da3"/><rect x="850" y="100" width="1" height="1" fill="#556da3"/><rect x="93" y="167" width="1" height="1" fill="#c7d0de"/><rect x="266" y="49" width="2" height="2" fill="#556da3"/><rect x="439" y="116" width="1" height="1" fill="#556da3"/><rect x="612" y="183" width="1" height="1" fill="#c7d0de"/><rect x="785" y="65" width="1" height="1" fill="#556da3"/><rect x="28" y="132" width="1" height="1" fill="#556da3"/><rect x="201" y="14" width="1" height="1" fill="#c7d0de"/><rect x="374" y="81" width="1" height="1" fill="#556da3"/><rect x="547" y="148" width="2" height="2" fill="#556da3"/><rect x="720" y="30" width="1" height="1" fill="#c7d0de"/><rect x="893" y="97" width="1" height="1" fill="#556da3"/><rect x="136" y="164" width="1" height="1" fill="#556da3"/><rect x="309" y="46" width="1" height="1" fill="#c7d0de"/><rect x="482" y="113" width="1" height="1" fill="#556da3"/><rect x="655" y="180" width="1" height="1" fill="#556da3"/><rect x="828" y="62" width="2" height="2" fill="#c7d0de"/><rect x="71" y="129" width="1" height="1" fill="#556da3"/><rect x="244" y="11" width="1" height="1" fill="#556da3"/><rect x="417" y="78" width="1" height="1" fill="#c7d0de"/><rect x="590" y="145" width="1" height="1" fill="#556da3"/><rect x="763" y="27" width="1" height="1" fill="#556da3"/><rect x="936" y="94" width="1" height="1" fill="#c7d0de"/><rect x="179" y="161" width="2" height="2" fill="#556da3"/><rect x="352" y="43" width="1" height="1" fill="#556da3"/><rect x="525" y="110" width="1" height="1" fill="#c7d0de"/><rect x="698" y="177" width="1" height="1" fill="#556da3"/><rect x="871" y="59" width="1" height="1" fill="#556da3"/><rect x="114" y="126" width="1" height="1" fill="#c7d0de"/><rect x="287" y="8" width="1" height="1" fill="#556da3"/><rect x="460" y="75" width="2" height="2" fill="#556da3"/><rect x="633" y="142" width="1" height="1" fill="#c7d0de"/><rect x="806" y="24" width="1" height="1" fill="#556da3"/><rect x="49" y="91" width="1" height="1" fill="#556da3"/><rect x="222" y="158" width="1" height="1" fill="#c7d0de"/><rect x="395" y="40" width="1" height="1" fill="#556da3"/><rect x="568" y="107" width="1" height="1" fill="#556da3"/><rect x="741" y="174" width="2" height="2" fill="#c7d0de"/><rect x="914" y="56" width="1" height="1" fill="#556da3"/><rect x="157" y="123" width="1" height="1" fill="#556da3"/><rect x="330" y="5" width="1" height="1" fill="#c7d0de"/><rect x="503" y="72" width="1" height="1" fill="#556da3"/><rect x="676" y="139" width="1" height="1" fill="#556da3"/><rect x="849" y="21" width="1" height="1" fill="#c7d0de"/><rect x="92" y="88" width="2" height="2" fill="#556da3"/><rect x="265" y="155" width="1" height="1" fill="#556da3"/><circle cx="863" cy="19" r="112" fill="#081750"/><circle cx="863" cy="19" r="112" fill="url(#planet)"/><path d="M25 132h240m430 0h240M86 154h130m530 0h140" stroke="#17305e"/><g transform="translate(303 56) scale(6)" ><path d="M0 0h1v1h-1zM1 0h1v1h-1zM2 0h1v1h-1zM3 0h1v1h-1zM0 1h1v1h-1zM4 1h1v1h-1zM0 2h1v1h-1zM4 2h1v1h-1zM0 3h1v1h-1zM1 3h1v1h-1zM2 3h1v1h-1zM3 3h1v1h-1zM0 4h1v1h-1zM2 4h1v1h-1zM0 5h1v1h-1zM3 5h1v1h-1zM0 6h1v1h-1zM4 6h1v1h-1zM6 0h1v1h-1zM7 0h1v1h-1zM8 0h1v1h-1zM9 0h1v1h-1zM10 0h1v1h-1zM6 1h1v1h-1zM6 2h1v1h-1zM6 3h1v1h-1zM7 3h1v1h-1zM8 3h1v1h-1zM9 3h1v1h-1zM6 4h1v1h-1zM6 5h1v1h-1zM6 6h1v1h-1zM7 6h1v1h-1zM8 6h1v1h-1zM9 6h1v1h-1zM10 6h1v1h-1zM13 0h1v1h-1zM14 0h1v1h-1zM15 0h1v1h-1zM12 1h1v1h-1zM16 1h1v1h-1zM12 2h1v1h-1zM16 2h1v1h-1zM12 3h1v1h-1zM13 3h1v1h-1zM14 3h1v1h-1zM15 3h1v1h-1zM16 3h1v1h-1zM12 4h1v1h-1zM16 4h1v1h-1zM12 5h1v1h-1zM16 5h1v1h-1zM12 6h1v1h-1zM16 6h1v1h-1zM18 0h1v1h-1zM19 0h1v1h-1zM20 0h1v1h-1zM21 0h1v1h-1zM18 1h1v1h-1zM22 1h1v1h-1zM18 2h1v1h-1zM22 2h1v1h-1zM18 3h1v1h-1zM22 3h1v1h-1zM18 4h1v1h-1zM22 4h1v1h-1zM18 5h1v1h-1zM22 5h1v1h-1zM18 6h1v1h-1zM19 6h1v1h-1zM20 6h1v1h-1zM21 6h1v1h-1zM24 0h1v1h-1zM28 0h1v1h-1zM24 1h1v1h-1zM25 1h1v1h-1zM27 1h1v1h-1zM28 1h1v1h-1zM24 2h1v1h-1zM26 2h1v1h-1zM28 2h1v1h-1zM24 3h1v1h-1zM26 3h1v1h-1zM28 3h1v1h-1zM24 4h1v1h-1zM28 4h1v1h-1zM24 5h1v1h-1zM28 5h1v1h-1zM24 6h1v1h-1zM28 6h1v1h-1zM30 0h1v1h-1zM31 0h1v1h-1zM32 0h1v1h-1zM33 0h1v1h-1zM34 0h1v1h-1zM30 1h1v1h-1zM30 2h1v1h-1zM30 3h1v1h-1zM31 3h1v1h-1zM32 3h1v1h-1zM33 3h1v1h-1zM30 4h1v1h-1zM30 5h1v1h-1zM30 6h1v1h-1zM31 6h1v1h-1zM32 6h1v1h-1zM33 6h1v1h-1zM34 6h1v1h-1zM37 5h1v1h-1zM38 5h1v1h-1zM37 6h1v1h-1zM38 6h1v1h-1zM42 0h1v1h-1zM46 0h1v1h-1zM42 1h1v1h-1zM43 1h1v1h-1zM46 1h1v1h-1zM42 2h1v1h-1zM43 2h1v1h-1zM46 2h1v1h-1zM42 3h1v1h-1zM44 3h1v1h-1zM46 3h1v1h-1zM42 4h1v1h-1zM45 4h1v1h-1zM46 4h1v1h-1zM42 5h1v1h-1zM45 5h1v1h-1zM46 5h1v1h-1zM42 6h1v1h-1zM46 6h1v1h-1zM48 0h1v1h-1zM49 0h1v1h-1zM50 0h1v1h-1zM51 0h1v1h-1zM52 0h1v1h-1zM48 1h1v1h-1zM48 2h1v1h-1zM48 3h1v1h-1zM49 3h1v1h-1zM50 3h1v1h-1zM51 3h1v1h-1zM48 4h1v1h-1zM48 5h1v1h-1zM48 6h1v1h-1zM55 0h1v1h-1zM56 0h1v1h-1zM57 0h1v1h-1zM54 1h1v1h-1zM58 1h1v1h-1zM54 2h1v1h-1zM58 2h1v1h-1zM54 3h1v1h-1zM58 3h1v1h-1zM54 4h1v1h-1zM58 4h1v1h-1zM54 5h1v1h-1zM58 5h1v1h-1zM55 6h1v1h-1zM56 6h1v1h-1zM57 6h1v1h-1z" fill="#8997ba"/></g><g transform="translate(303 51) scale(6)" ><path d="M0 0h1v1h-1zM1 0h1v1h-1zM2 0h1v1h-1zM3 0h1v1h-1zM0 1h1v1h-1zM4 1h1v1h-1zM0 2h1v1h-1zM4 2h1v1h-1zM0 3h1v1h-1zM1 3h1v1h-1zM2 3h1v1h-1zM3 3h1v1h-1zM0 4h1v1h-1zM2 4h1v1h-1zM0 5h1v1h-1zM3 5h1v1h-1zM0 6h1v1h-1zM4 6h1v1h-1zM6 0h1v1h-1zM7 0h1v1h-1zM8 0h1v1h-1zM9 0h1v1h-1zM10 0h1v1h-1zM6 1h1v1h-1zM6 2h1v1h-1zM6 3h1v1h-1zM7 3h1v1h-1zM8 3h1v1h-1zM9 3h1v1h-1zM6 4h1v1h-1zM6 5h1v1h-1zM6 6h1v1h-1zM7 6h1v1h-1zM8 6h1v1h-1zM9 6h1v1h-1zM10 6h1v1h-1zM13 0h1v1h-1zM14 0h1v1h-1zM15 0h1v1h-1zM12 1h1v1h-1zM16 1h1v1h-1zM12 2h1v1h-1zM16 2h1v1h-1zM12 3h1v1h-1zM13 3h1v1h-1zM14 3h1v1h-1zM15 3h1v1h-1zM16 3h1v1h-1zM12 4h1v1h-1zM16 4h1v1h-1zM12 5h1v1h-1zM16 5h1v1h-1zM12 6h1v1h-1zM16 6h1v1h-1zM18 0h1v1h-1zM19 0h1v1h-1zM20 0h1v1h-1zM21 0h1v1h-1zM18 1h1v1h-1zM22 1h1v1h-1zM18 2h1v1h-1zM22 2h1v1h-1zM18 3h1v1h-1zM22 3h1v1h-1zM18 4h1v1h-1zM22 4h1v1h-1zM18 5h1v1h-1zM22 5h1v1h-1zM18 6h1v1h-1zM19 6h1v1h-1zM20 6h1v1h-1zM21 6h1v1h-1zM24 0h1v1h-1zM28 0h1v1h-1zM24 1h1v1h-1zM25 1h1v1h-1zM27 1h1v1h-1zM28 1h1v1h-1zM24 2h1v1h-1zM26 2h1v1h-1zM28 2h1v1h-1zM24 3h1v1h-1zM26 3h1v1h-1zM28 3h1v1h-1zM24 4h1v1h-1zM28 4h1v1h-1zM24 5h1v1h-1zM28 5h1v1h-1zM24 6h1v1h-1zM28 6h1v1h-1zM30 0h1v1h-1zM31 0h1v1h-1zM32 0h1v1h-1zM33 0h1v1h-1zM34 0h1v1h-1zM30 1h1v1h-1zM30 2h1v1h-1zM30 3h1v1h-1zM31 3h1v1h-1zM32 3h1v1h-1zM33 3h1v1h-1zM30 4h1v1h-1zM30 5h1v1h-1zM30 6h1v1h-1zM31 6h1v1h-1zM32 6h1v1h-1zM33 6h1v1h-1zM34 6h1v1h-1zM37 5h1v1h-1zM38 5h1v1h-1zM37 6h1v1h-1zM38 6h1v1h-1zM42 0h1v1h-1zM46 0h1v1h-1zM42 1h1v1h-1zM43 1h1v1h-1zM46 1h1v1h-1zM42 2h1v1h-1zM43 2h1v1h-1zM46 2h1v1h-1zM42 3h1v1h-1zM44 3h1v1h-1zM46 3h1v1h-1zM42 4h1v1h-1zM45 4h1v1h-1zM46 4h1v1h-1zM42 5h1v1h-1zM45 5h1v1h-1zM46 5h1v1h-1zM42 6h1v1h-1zM46 6h1v1h-1zM48 0h1v1h-1zM49 0h1v1h-1zM50 0h1v1h-1zM51 0h1v1h-1zM52 0h1v1h-1zM48 1h1v1h-1zM48 2h1v1h-1zM48 3h1v1h-1zM49 3h1v1h-1zM50 3h1v1h-1zM51 3h1v1h-1zM48 4h1v1h-1zM48 5h1v1h-1zM48 6h1v1h-1zM55 0h1v1h-1zM56 0h1v1h-1zM57 0h1v1h-1zM54 1h1v1h-1zM58 1h1v1h-1zM54 2h1v1h-1zM58 2h1v1h-1zM54 3h1v1h-1zM58 3h1v1h-1zM54 4h1v1h-1zM58 4h1v1h-1zM54 5h1v1h-1zM58 5h1v1h-1zM55 6h1v1h-1zM56 6h1v1h-1zM57 6h1v1h-1z" fill="#f1f3ef"/></g><g transform="translate(308.1 109) scale(1.8)" ><path d="M0 0h1v1h-1zM1 0h1v1h-1zM2 0h1v1h-1zM3 0h1v1h-1zM4 0h1v1h-1zM2 1h1v1h-1zM2 2h1v1h-1zM2 3h1v1h-1zM2 4h1v1h-1zM2 5h1v1h-1zM2 6h1v1h-1zM6 0h1v1h-1zM10 0h1v1h-1zM6 1h1v1h-1zM10 1h1v1h-1zM6 2h1v1h-1zM10 2h1v1h-1zM6 3h1v1h-1zM7 3h1v1h-1zM8 3h1v1h-1zM9 3h1v1h-1zM10 3h1v1h-1zM6 4h1v1h-1zM10 4h1v1h-1zM6 5h1v1h-1zM10 5h1v1h-1zM6 6h1v1h-1zM10 6h1v1h-1zM12 0h1v1h-1zM13 0h1v1h-1zM14 0h1v1h-1zM15 0h1v1h-1zM16 0h1v1h-1zM12 1h1v1h-1zM12 2h1v1h-1zM12 3h1v1h-1zM13 3h1v1h-1zM14 3h1v1h-1zM15 3h1v1h-1zM12 4h1v1h-1zM12 5h1v1h-1zM12 6h1v1h-1zM13 6h1v1h-1zM14 6h1v1h-1zM15 6h1v1h-1zM16 6h1v1h-1zM24 0h1v1h-1zM28 0h1v1h-1zM24 1h1v1h-1zM28 1h1v1h-1zM24 2h1v1h-1zM28 2h1v1h-1zM24 3h1v1h-1zM25 3h1v1h-1zM26 3h1v1h-1zM27 3h1v1h-1zM28 3h1v1h-1zM24 4h1v1h-1zM28 4h1v1h-1zM24 5h1v1h-1zM28 5h1v1h-1zM24 6h1v1h-1zM28 6h1v1h-1zM30 0h1v1h-1zM31 0h1v1h-1zM32 0h1v1h-1zM33 0h1v1h-1zM34 0h1v1h-1zM30 1h1v1h-1zM30 2h1v1h-1zM30 3h1v1h-1zM31 3h1v1h-1zM32 3h1v1h-1zM33 3h1v1h-1zM30 4h1v1h-1zM30 5h1v1h-1zM30 6h1v1h-1zM31 6h1v1h-1zM32 6h1v1h-1zM33 6h1v1h-1zM34 6h1v1h-1zM37 0h1v1h-1zM38 0h1v1h-1zM39 0h1v1h-1zM36 1h1v1h-1zM40 1h1v1h-1zM36 2h1v1h-1zM40 2h1v1h-1zM36 3h1v1h-1zM37 3h1v1h-1zM38 3h1v1h-1zM39 3h1v1h-1zM40 3h1v1h-1zM36 4h1v1h-1zM40 4h1v1h-1zM36 5h1v1h-1zM40 5h1v1h-1zM36 6h1v1h-1zM40 6h1v1h-1zM42 0h1v1h-1zM43 0h1v1h-1zM44 0h1v1h-1zM45 0h1v1h-1zM42 1h1v1h-1zM46 1h1v1h-1zM42 2h1v1h-1zM46 2h1v1h-1zM42 3h1v1h-1zM46 3h1v1h-1zM42 4h1v1h-1zM46 4h1v1h-1zM42 5h1v1h-1zM46 5h1v1h-1zM42 6h1v1h-1zM43 6h1v1h-1zM44 6h1v1h-1zM45 6h1v1h-1zM48 0h1v1h-1zM49 0h1v1h-1zM50 0h1v1h-1zM51 0h1v1h-1zM52 0h1v1h-1zM48 1h1v1h-1zM48 2h1v1h-1zM48 3h1v1h-1zM49 3h1v1h-1zM50 3h1v1h-1zM51 3h1v1h-1zM48 4h1v1h-1zM48 5h1v1h-1zM48 6h1v1h-1zM49 6h1v1h-1zM50 6h1v1h-1zM51 6h1v1h-1zM52 6h1v1h-1zM54 0h1v1h-1zM55 0h1v1h-1zM56 0h1v1h-1zM57 0h1v1h-1zM54 1h1v1h-1zM58 1h1v1h-1zM54 2h1v1h-1zM58 2h1v1h-1zM54 3h1v1h-1zM55 3h1v1h-1zM56 3h1v1h-1zM57 3h1v1h-1zM54 4h1v1h-1zM56 4h1v1h-1zM54 5h1v1h-1zM57 5h1v1h-1zM54 6h1v1h-1zM58 6h1v1h-1zM66 0h1v1h-1zM67 0h1v1h-1zM68 0h1v1h-1zM69 0h1v1h-1zM70 0h1v1h-1zM66 1h1v1h-1zM66 2h1v1h-1zM66 3h1v1h-1zM67 3h1v1h-1zM68 3h1v1h-1zM69 3h1v1h-1zM66 4h1v1h-1zM66 5h1v1h-1zM66 6h1v1h-1zM67 6h1v1h-1zM68 6h1v1h-1zM69 6h1v1h-1zM70 6h1v1h-1zM72 0h1v1h-1zM76 0h1v1h-1zM72 1h1v1h-1zM76 1h1v1h-1zM73 2h1v1h-1zM75 2h1v1h-1zM74 3h1v1h-1zM73 4h1v1h-1zM75 4h1v1h-1zM72 5h1v1h-1zM76 5h1v1h-1zM72 6h1v1h-1zM76 6h1v1h-1zM79 0h1v1h-1zM80 0h1v1h-1zM81 0h1v1h-1zM82 0h1v1h-1zM78 1h1v1h-1zM78 2h1v1h-1zM78 3h1v1h-1zM78 4h1v1h-1zM78 5h1v1h-1zM79 6h1v1h-1zM80 6h1v1h-1zM81 6h1v1h-1zM82 6h1v1h-1zM84 0h1v1h-1zM88 0h1v1h-1zM84 1h1v1h-1zM88 1h1v1h-1zM84 2h1v1h-1zM88 2h1v1h-1zM84 3h1v1h-1zM85 3h1v1h-1zM86 3h1v1h-1zM87 3h1v1h-1zM88 3h1v1h-1zM84 4h1v1h-1zM88 4h1v1h-1zM84 5h1v1h-1zM88 5h1v1h-1zM84 6h1v1h-1zM88 6h1v1h-1zM91 0h1v1h-1zM92 0h1v1h-1zM93 0h1v1h-1zM90 1h1v1h-1zM94 1h1v1h-1zM90 2h1v1h-1zM94 2h1v1h-1zM90 3h1v1h-1zM91 3h1v1h-1zM92 3h1v1h-1zM93 3h1v1h-1zM94 3h1v1h-1zM90 4h1v1h-1zM94 4h1v1h-1zM90 5h1v1h-1zM94 5h1v1h-1zM90 6h1v1h-1zM94 6h1v1h-1zM96 0h1v1h-1zM100 0h1v1h-1zM96 1h1v1h-1zM97 1h1v1h-1zM100 1h1v1h-1zM96 2h1v1h-1zM97 2h1v1h-1zM100 2h1v1h-1zM96 3h1v1h-1zM98 3h1v1h-1zM100 3h1v1h-1zM96 4h1v1h-1zM99 4h1v1h-1zM100 4h1v1h-1zM96 5h1v1h-1zM99 5h1v1h-1zM100 5h1v1h-1zM96 6h1v1h-1zM100 6h1v1h-1zM103 0h1v1h-1zM104 0h1v1h-1zM105 0h1v1h-1zM106 0h1v1h-1zM102 1h1v1h-1zM102 2h1v1h-1zM102 3h1v1h-1zM104 3h1v1h-1zM105 3h1v1h-1zM106 3h1v1h-1zM102 4h1v1h-1zM106 4h1v1h-1zM102 5h1v1h-1zM106 5h1v1h-1zM103 6h1v1h-1zM104 6h1v1h-1zM105 6h1v1h-1zM106 6h1v1h-1zM108 0h1v1h-1zM109 0h1v1h-1zM110 0h1v1h-1zM111 0h1v1h-1zM112 0h1v1h-1zM108 1h1v1h-1zM108 2h1v1h-1zM108 3h1v1h-1zM109 3h1v1h-1zM110 3h1v1h-1zM111 3h1v1h-1zM108 4h1v1h-1zM108 5h1v1h-1zM108 6h1v1h-1zM109 6h1v1h-1zM110 6h1v1h-1zM111 6h1v1h-1zM112 6h1v1h-1zM124 0h1v1h-1zM123 1h1v1h-1zM123 2h1v1h-1zM122 3h1v1h-1zM121 4h1v1h-1zM121 5h1v1h-1zM120 6h1v1h-1zM133 0h1v1h-1zM134 0h1v1h-1zM135 0h1v1h-1zM136 0h1v1h-1zM132 1h1v1h-1zM132 2h1v1h-1zM133 3h1v1h-1zM134 3h1v1h-1zM135 3h1v1h-1zM136 4h1v1h-1zM136 5h1v1h-1zM132 6h1v1h-1zM133 6h1v1h-1zM134 6h1v1h-1zM135 6h1v1h-1zM138 0h1v1h-1zM139 0h1v1h-1zM140 0h1v1h-1zM141 0h1v1h-1zM142 0h1v1h-1zM138 1h1v1h-1zM138 2h1v1h-1zM138 3h1v1h-1zM139 3h1v1h-1zM140 3h1v1h-1zM141 3h1v1h-1zM138 4h1v1h-1zM138 5h1v1h-1zM138 6h1v1h-1zM139 6h1v1h-1zM140 6h1v1h-1zM141 6h1v1h-1zM142 6h1v1h-1zM145 0h1v1h-1zM146 0h1v1h-1zM147 0h1v1h-1zM148 0h1v1h-1zM144 1h1v1h-1zM144 2h1v1h-1zM144 3h1v1h-1zM144 4h1v1h-1zM144 5h1v1h-1zM145 6h1v1h-1zM146 6h1v1h-1zM147 6h1v1h-1zM148 6h1v1h-1zM150 0h1v1h-1zM151 0h1v1h-1zM152 0h1v1h-1zM153 0h1v1h-1zM154 0h1v1h-1zM152 1h1v1h-1zM152 2h1v1h-1zM152 3h1v1h-1zM152 4h1v1h-1zM152 5h1v1h-1zM152 6h1v1h-1zM157 0h1v1h-1zM158 0h1v1h-1zM159 0h1v1h-1zM156 1h1v1h-1zM160 1h1v1h-1zM156 2h1v1h-1zM160 2h1v1h-1zM156 3h1v1h-1zM160 3h1v1h-1zM156 4h1v1h-1zM160 4h1v1h-1zM156 5h1v1h-1zM160 5h1v1h-1zM157 6h1v1h-1zM158 6h1v1h-1zM159 6h1v1h-1zM162 0h1v1h-1zM163 0h1v1h-1zM164 0h1v1h-1zM165 0h1v1h-1zM162 1h1v1h-1zM166 1h1v1h-1zM162 2h1v1h-1zM166 2h1v1h-1zM162 3h1v1h-1zM163 3h1v1h-1zM164 3h1v1h-1zM165 3h1v1h-1zM162 4h1v1h-1zM164 4h1v1h-1zM162 5h1v1h-1zM165 5h1v1h-1zM162 6h1v1h-1zM166 6h1v1h-1zM175 0h1v1h-1zM176 0h1v1h-1zM177 0h1v1h-1zM174 1h1v1h-1zM178 1h1v1h-1zM174 2h1v1h-1zM177 2h1v1h-1zM178 2h1v1h-1zM174 3h1v1h-1zM176 3h1v1h-1zM178 3h1v1h-1zM174 4h1v1h-1zM175 4h1v1h-1zM178 4h1v1h-1zM174 5h1v1h-1zM178 5h1v1h-1zM175 6h1v1h-1zM176 6h1v1h-1zM177 6h1v1h-1zM182 0h1v1h-1zM181 1h1v1h-1zM182 1h1v1h-1zM182 2h1v1h-1zM182 3h1v1h-1zM182 4h1v1h-1zM182 5h1v1h-1zM181 6h1v1h-1zM182 6h1v1h-1zM183 6h1v1h-1zM186 0h1v1h-1zM187 0h1v1h-1zM188 0h1v1h-1zM189 0h1v1h-1zM190 1h1v1h-1zM190 2h1v1h-1zM187 3h1v1h-1zM188 3h1v1h-1zM189 3h1v1h-1zM190 4h1v1h-1zM190 5h1v1h-1zM186 6h1v1h-1zM187 6h1v1h-1zM188 6h1v1h-1zM189 6h1v1h-1z" fill="#dea1e9"/></g><path d="M33 158h894v194H33z" fill="#02050c" stroke="#183e89"/><g transform="translate(51 171) scale(2)" ><path d="M0 0h1v1h-1zM1 0h1v1h-1zM2 0h1v1h-1zM3 0h1v1h-1zM0 1h1v1h-1zM4 1h1v1h-1zM0 2h1v1h-1zM4 2h1v1h-1zM0 3h1v1h-1zM4 3h1v1h-1zM0 4h1v1h-1zM4 4h1v1h-1zM0 5h1v1h-1zM4 5h1v1h-1zM0 6h1v1h-1zM1 6h1v1h-1zM2 6h1v1h-1zM3 6h1v1h-1zM7 0h1v1h-1zM8 0h1v1h-1zM9 0h1v1h-1zM6 1h1v1h-1zM10 1h1v1h-1zM6 2h1v1h-1zM10 2h1v1h-1zM6 3h1v1h-1zM10 3h1v1h-1zM6 4h1v1h-1zM10 4h1v1h-1zM6 5h1v1h-1zM10 5h1v1h-1zM7 6h1v1h-1zM8 6h1v1h-1zM9 6h1v1h-1zM13 0h1v1h-1zM14 0h1v1h-1zM15 0h1v1h-1zM16 0h1v1h-1zM12 1h1v1h-1zM12 2h1v1h-1zM12 3h1v1h-1zM12 4h1v1h-1zM12 5h1v1h-1zM13 6h1v1h-1zM14 6h1v1h-1zM15 6h1v1h-1zM16 6h1v1h-1zM18 0h1v1h-1zM22 0h1v1h-1zM18 1h1v1h-1zM21 1h1v1h-1zM18 2h1v1h-1zM20 2h1v1h-1zM18 3h1v1h-1zM19 3h1v1h-1zM18 4h1v1h-1zM20 4h1v1h-1zM18 5h1v1h-1zM21 5h1v1h-1zM18 6h1v1h-1zM22 6h1v1h-1zM24 0h1v1h-1zM25 0h1v1h-1zM26 0h1v1h-1zM27 0h1v1h-1zM28 0h1v1h-1zM26 1h1v1h-1zM26 2h1v1h-1zM26 3h1v1h-1zM26 4h1v1h-1zM26 5h1v1h-1zM24 6h1v1h-1zM25 6h1v1h-1zM26 6h1v1h-1zM27 6h1v1h-1zM28 6h1v1h-1zM30 0h1v1h-1zM34 0h1v1h-1zM30 1h1v1h-1zM31 1h1v1h-1zM34 1h1v1h-1zM30 2h1v1h-1zM31 2h1v1h-1zM34 2h1v1h-1zM30 3h1v1h-1zM32 3h1v1h-1zM34 3h1v1h-1zM30 4h1v1h-1zM33 4h1v1h-1zM34 4h1v1h-1zM30 5h1v1h-1zM33 5h1v1h-1zM34 5h1v1h-1zM30 6h1v1h-1zM34 6h1v1h-1zM37 0h1v1h-1zM38 0h1v1h-1zM39 0h1v1h-1zM40 0h1v1h-1zM36 1h1v1h-1zM36 2h1v1h-1zM36 3h1v1h-1zM38 3h1v1h-1zM39 3h1v1h-1zM40 3h1v1h-1zM36 4h1v1h-1zM40 4h1v1h-1zM36 5h1v1h-1zM40 5h1v1h-1zM37 6h1v1h-1zM38 6h1v1h-1zM39 6h1v1h-1zM40 6h1v1h-1zM48 0h1v1h-1zM49 0h1v1h-1zM50 0h1v1h-1zM51 0h1v1h-1zM48 1h1v1h-1zM52 1h1v1h-1zM48 2h1v1h-1zM52 2h1v1h-1zM48 3h1v1h-1zM49 3h1v1h-1zM50 3h1v1h-1zM51 3h1v1h-1zM48 4h1v1h-1zM52 4h1v1h-1zM48 5h1v1h-1zM52 5h1v1h-1zM48 6h1v1h-1zM49 6h1v1h-1zM50 6h1v1h-1zM51 6h1v1h-1zM55 0h1v1h-1zM56 0h1v1h-1zM57 0h1v1h-1zM54 1h1v1h-1zM58 1h1v1h-1zM54 2h1v1h-1zM58 2h1v1h-1zM54 3h1v1h-1zM55 3h1v1h-1zM56 3h1v1h-1zM57 3h1v1h-1zM58 3h1v1h-1zM54 4h1v1h-1zM58 4h1v1h-1zM54 5h1v1h-1zM58 5h1v1h-1zM54 6h1v1h-1zM58 6h1v1h-1zM60 0h1v1h-1zM64 0h1v1h-1zM60 1h1v1h-1zM64 1h1v1h-1zM61 2h1v1h-1zM63 2h1v1h-1zM62 3h1v1h-1zM62 4h1v1h-1zM62 5h1v1h-1zM62 6h1v1h-1zM76 0h1v1h-1zM75 1h1v1h-1zM75 2h1v1h-1zM74 3h1v1h-1zM73 4h1v1h-1zM73 5h1v1h-1zM72 6h1v1h-1zM84 0h1v1h-1zM85 0h1v1h-1zM86 0h1v1h-1zM87 0h1v1h-1zM84 1h1v1h-1zM88 1h1v1h-1zM84 2h1v1h-1zM88 2h1v1h-1zM84 3h1v1h-1zM85 3h1v1h-1zM86 3h1v1h-1zM87 3h1v1h-1zM84 4h1v1h-1zM84 5h1v1h-1zM84 6h1v1h-1zM90 0h1v1h-1zM94 0h1v1h-1zM90 1h1v1h-1zM94 1h1v1h-1zM90 2h1v1h-1zM94 2h1v1h-1zM90 3h1v1h-1zM94 3h1v1h-1zM90 4h1v1h-1zM94 4h1v1h-1zM90 5h1v1h-1zM94 5h1v1h-1zM91 6h1v1h-1zM92 6h1v1h-1zM93 6h1v1h-1zM96 0h1v1h-1zM97 0h1v1h-1zM98 0h1v1h-1zM99 0h1v1h-1zM96 1h1v1h-1zM100 1h1v1h-1zM96 2h1v1h-1zM100 2h1v1h-1zM96 3h1v1h-1zM97 3h1v1h-1zM98 3h1v1h-1zM99 3h1v1h-1zM96 4h1v1h-1zM100 4h1v1h-1zM96 5h1v1h-1zM100 5h1v1h-1zM96 6h1v1h-1zM97 6h1v1h-1zM98 6h1v1h-1zM99 6h1v1h-1zM102 0h1v1h-1zM102 1h1v1h-1zM102 2h1v1h-1zM102 3h1v1h-1zM102 4h1v1h-1zM102 5h1v1h-1zM102 6h1v1h-1zM103 6h1v1h-1zM104 6h1v1h-1zM105 6h1v1h-1zM106 6h1v1h-1zM108 0h1v1h-1zM109 0h1v1h-1zM110 0h1v1h-1zM111 0h1v1h-1zM112 0h1v1h-1zM110 1h1v1h-1zM110 2h1v1h-1zM110 3h1v1h-1zM110 4h1v1h-1zM110 5h1v1h-1zM108 6h1v1h-1zM109 6h1v1h-1zM110 6h1v1h-1zM111 6h1v1h-1zM112 6h1v1h-1zM115 0h1v1h-1zM116 0h1v1h-1zM117 0h1v1h-1zM118 0h1v1h-1zM114 1h1v1h-1zM114 2h1v1h-1zM114 3h1v1h-1zM114 4h1v1h-1zM114 5h1v1h-1zM115 6h1v1h-1zM116 6h1v1h-1zM117 6h1v1h-1zM118 6h1v1h-1zM127 0h1v1h-1zM128 0h1v1h-1zM129 0h1v1h-1zM126 1h1v1h-1zM130 1h1v1h-1zM126 2h1v1h-1zM130 2h1v1h-1zM126 3h1v1h-1zM127 3h1v1h-1zM128 3h1v1h-1zM129 3h1v1h-1zM130 3h1v1h-1zM126 4h1v1h-1zM130 4h1v1h-1zM126 5h1v1h-1zM130 5h1v1h-1zM126 6h1v1h-1zM130 6h1v1h-1zM132 0h1v1h-1zM133 0h1v1h-1zM134 0h1v1h-1zM135 0h1v1h-1zM132 1h1v1h-1zM136 1h1v1h-1zM132 2h1v1h-1zM136 2h1v1h-1zM132 3h1v1h-1zM133 3h1v1h-1zM134 3h1v1h-1zM135 3h1v1h-1zM132 4h1v1h-1zM134 4h1v1h-1zM132 5h1v1h-1zM135 5h1v1h-1zM132 6h1v1h-1zM136 6h1v1h-1zM139 0h1v1h-1zM140 0h1v1h-1zM141 0h1v1h-1zM142 0h1v1h-1zM138 1h1v1h-1zM138 2h1v1h-1zM138 3h1v1h-1zM138 4h1v1h-1zM138 5h1v1h-1zM139 6h1v1h-1zM140 6h1v1h-1zM141 6h1v1h-1zM142 6h1v1h-1zM144 0h1v1h-1zM148 0h1v1h-1zM144 1h1v1h-1zM148 1h1v1h-1zM144 2h1v1h-1zM148 2h1v1h-1zM144 3h1v1h-1zM145 3h1v1h-1zM146 3h1v1h-1zM147 3h1v1h-1zM148 3h1v1h-1zM144 4h1v1h-1zM148 4h1v1h-1zM144 5h1v1h-1zM148 5h1v1h-1zM144 6h1v1h-1zM148 6h1v1h-1zM150 0h1v1h-1zM151 0h1v1h-1zM152 0h1v1h-1zM153 0h1v1h-1zM154 0h1v1h-1zM152 1h1v1h-1zM152 2h1v1h-1zM152 3h1v1h-1zM152 4h1v1h-1zM152 5h1v1h-1zM150 6h1v1h-1zM151 6h1v1h-1zM152 6h1v1h-1zM153 6h1v1h-1zM154 6h1v1h-1zM156 0h1v1h-1zM160 0h1v1h-1zM156 1h1v1h-1zM160 1h1v1h-1zM156 2h1v1h-1zM160 2h1v1h-1zM156 3h1v1h-1zM160 3h1v1h-1zM156 4h1v1h-1zM160 4h1v1h-1zM157 5h1v1h-1zM159 5h1v1h-1zM158 6h1v1h-1zM162 0h1v1h-1zM163 0h1v1h-1zM164 0h1v1h-1zM165 0h1v1h-1zM166 0h1v1h-1zM162 1h1v1h-1zM162 2h1v1h-1zM162 3h1v1h-1zM163 3h1v1h-1zM164 3h1v1h-1zM165 3h1v1h-1zM162 4h1v1h-1zM162 5h1v1h-1zM162 6h1v1h-1zM163 6h1v1h-1zM164 6h1v1h-1zM165 6h1v1h-1zM166 6h1v1h-1z" fill="#fafbe6"/></g><g transform="translate(51 208) scale(1.8)" ><path d="M0 0h1v1h-1zM4 0h1v1h-1zM0 1h1v1h-1zM4 1h1v1h-1zM1 2h1v1h-1zM3 2h1v1h-1zM2 3h1v1h-1zM2 4h1v1h-1zM2 5h1v1h-1zM2 6h1v1h-1zM7 0h1v1h-1zM8 0h1v1h-1zM9 0h1v1h-1zM6 1h1v1h-1zM10 1h1v1h-1zM6 2h1v1h-1zM10 2h1v1h-1zM6 3h1v1h-1zM10 3h1v1h-1zM6 4h1v1h-1zM10 4h1v1h-1zM6 5h1v1h-1zM10 5h1v1h-1zM7 6h1v1h-1zM8 6h1v1h-1zM9 6h1v1h-1zM12 0h1v1h-1zM16 0h1v1h-1zM12 1h1v1h-1zM16 1h1v1h-1zM12 2h1v1h-1zM16 2h1v1h-1zM12 3h1v1h-1zM16 3h1v1h-1zM12 4h1v1h-1zM16 4h1v1h-1zM12 5h1v1h-1zM16 5h1v1h-1zM13 6h1v1h-1zM14 6h1v1h-1zM15 6h1v1h-1zM24 0h1v1h-1zM25 0h1v1h-1zM26 0h1v1h-1zM27 0h1v1h-1zM24 1h1v1h-1zM28 1h1v1h-1zM24 2h1v1h-1zM28 2h1v1h-1zM24 3h1v1h-1zM28 3h1v1h-1zM24 4h1v1h-1zM28 4h1v1h-1zM24 5h1v1h-1zM28 5h1v1h-1zM24 6h1v1h-1zM25 6h1v1h-1zM26 6h1v1h-1zM27 6h1v1h-1zM31 0h1v1h-1zM32 0h1v1h-1zM33 0h1v1h-1zM30 1h1v1h-1zM34 1h1v1h-1zM30 2h1v1h-1zM34 2h1v1h-1zM30 3h1v1h-1zM34 3h1v1h-1zM30 4h1v1h-1zM34 4h1v1h-1zM30 5h1v1h-1zM34 5h1v1h-1zM31 6h1v1h-1zM32 6h1v1h-1zM33 6h1v1h-1zM37 0h1v1h-1zM38 0h1v1h-1zM39 0h1v1h-1zM40 0h1v1h-1zM36 1h1v1h-1zM36 2h1v1h-1zM36 3h1v1h-1zM36 4h1v1h-1zM36 5h1v1h-1zM37 6h1v1h-1zM38 6h1v1h-1zM39 6h1v1h-1zM40 6h1v1h-1zM42 0h1v1h-1zM46 0h1v1h-1zM42 1h1v1h-1zM45 1h1v1h-1zM42 2h1v1h-1zM44 2h1v1h-1zM42 3h1v1h-1zM43 3h1v1h-1zM42 4h1v1h-1zM44 4h1v1h-1zM42 5h1v1h-1zM45 5h1v1h-1zM42 6h1v1h-1zM46 6h1v1h-1zM55 0h1v1h-1zM56 0h1v1h-1zM57 0h1v1h-1zM54 1h1v1h-1zM58 1h1v1h-1zM54 2h1v1h-1zM58 2h1v1h-1zM54 3h1v1h-1zM55 3h1v1h-1zM56 3h1v1h-1zM57 3h1v1h-1zM58 3h1v1h-1zM54 4h1v1h-1zM58 4h1v1h-1zM54 5h1v1h-1zM58 5h1v1h-1zM54 6h1v1h-1zM58 6h1v1h-1zM60 0h1v1h-1zM61 0h1v1h-1zM62 0h1v1h-1zM63 0h1v1h-1zM64 0h1v1h-1zM62 1h1v1h-1zM62 2h1v1h-1zM62 3h1v1h-1zM62 4h1v1h-1zM62 5h1v1h-1zM62 6h1v1h-1zM73 0h1v1h-1zM74 0h1v1h-1zM75 0h1v1h-1zM72 1h1v1h-1zM76 1h1v1h-1zM72 2h1v1h-1zM76 2h1v1h-1zM72 3h1v1h-1zM73 3h1v1h-1zM74 3h1v1h-1zM75 3h1v1h-1zM76 3h1v1h-1zM72 4h1v1h-1zM76 4h1v1h-1zM72 5h1v1h-1zM76 5h1v1h-1zM72 6h1v1h-1zM76 6h1v1h-1zM85 0h1v1h-1zM86 0h1v1h-1zM87 0h1v1h-1zM88 0h1v1h-1zM84 1h1v1h-1zM84 2h1v1h-1zM85 3h1v1h-1zM86 3h1v1h-1zM87 3h1v1h-1zM88 4h1v1h-1zM88 5h1v1h-1zM84 6h1v1h-1zM85 6h1v1h-1zM86 6h1v1h-1zM87 6h1v1h-1zM90 0h1v1h-1zM91 0h1v1h-1zM92 0h1v1h-1zM93 0h1v1h-1zM94 0h1v1h-1zM92 1h1v1h-1zM92 2h1v1h-1zM92 3h1v1h-1zM92 4h1v1h-1zM92 5h1v1h-1zM92 6h1v1h-1zM97 0h1v1h-1zM98 0h1v1h-1zM99 0h1v1h-1zM96 1h1v1h-1zM100 1h1v1h-1zM96 2h1v1h-1zM100 2h1v1h-1zM96 3h1v1h-1zM97 3h1v1h-1zM98 3h1v1h-1zM99 3h1v1h-1zM100 3h1v1h-1zM96 4h1v1h-1zM100 4h1v1h-1zM96 5h1v1h-1zM100 5h1v1h-1zM96 6h1v1h-1zM100 6h1v1h-1zM102 0h1v1h-1zM103 0h1v1h-1zM104 0h1v1h-1zM105 0h1v1h-1zM106 0h1v1h-1zM104 1h1v1h-1zM104 2h1v1h-1zM104 3h1v1h-1zM104 4h1v1h-1zM104 5h1v1h-1zM104 6h1v1h-1zM108 0h1v1h-1zM109 0h1v1h-1zM110 0h1v1h-1zM111 0h1v1h-1zM112 0h1v1h-1zM110 1h1v1h-1zM110 2h1v1h-1zM110 3h1v1h-1zM110 4h1v1h-1zM110 5h1v1h-1zM108 6h1v1h-1zM109 6h1v1h-1zM110 6h1v1h-1zM111 6h1v1h-1zM112 6h1v1h-1zM115 0h1v1h-1zM116 0h1v1h-1zM117 0h1v1h-1zM114 1h1v1h-1zM118 1h1v1h-1zM114 2h1v1h-1zM118 2h1v1h-1zM114 3h1v1h-1zM118 3h1v1h-1zM114 4h1v1h-1zM118 4h1v1h-1zM114 5h1v1h-1zM118 5h1v1h-1zM115 6h1v1h-1zM116 6h1v1h-1zM117 6h1v1h-1zM120 0h1v1h-1zM124 0h1v1h-1zM120 1h1v1h-1zM121 1h1v1h-1zM124 1h1v1h-1zM120 2h1v1h-1zM121 2h1v1h-1zM124 2h1v1h-1zM120 3h1v1h-1zM122 3h1v1h-1zM124 3h1v1h-1zM120 4h1v1h-1zM123 4h1v1h-1zM124 4h1v1h-1zM120 5h1v1h-1zM123 5h1v1h-1zM124 5h1v1h-1zM120 6h1v1h-1zM124 6h1v1h-1zM132 0h1v1h-1zM133 0h1v1h-1zM134 0h1v1h-1zM135 0h1v1h-1zM136 0h1v1h-1zM132 1h1v1h-1zM132 2h1v1h-1zM132 3h1v1h-1zM133 3h1v1h-1zM134 3h1v1h-1zM135 3h1v1h-1zM132 4h1v1h-1zM132 5h1v1h-1zM132 6h1v1h-1zM138 0h1v1h-1zM142 0h1v1h-1zM138 1h1v1h-1zM142 1h1v1h-1zM138 2h1v1h-1zM142 2h1v1h-1zM138 3h1v1h-1zM142 3h1v1h-1zM138 4h1v1h-1zM142 4h1v1h-1zM138 5h1v1h-1zM142 5h1v1h-1zM139 6h1v1h-1zM140 6h1v1h-1zM141 6h1v1h-1zM144 0h1v1h-1zM144 1h1v1h-1zM144 2h1v1h-1zM144 3h1v1h-1zM144 4h1v1h-1zM144 5h1v1h-1zM144 6h1v1h-1zM145 6h1v1h-1zM146 6h1v1h-1zM147 6h1v1h-1zM148 6h1v1h-1zM150 0h1v1h-1zM150 1h1v1h-1zM150 2h1v1h-1zM150 3h1v1h-1zM150 4h1v1h-1zM150 5h1v1h-1zM150 6h1v1h-1zM151 6h1v1h-1zM152 6h1v1h-1zM153 6h1v1h-1zM154 6h1v1h-1zM163 0h1v1h-1zM164 0h1v1h-1zM165 0h1v1h-1zM162 1h1v1h-1zM166 1h1v1h-1zM162 2h1v1h-1zM166 2h1v1h-1zM162 3h1v1h-1zM166 3h1v1h-1zM162 4h1v1h-1zM166 4h1v1h-1zM162 5h1v1h-1zM166 5h1v1h-1zM163 6h1v1h-1zM164 6h1v1h-1zM165 6h1v1h-1zM168 0h1v1h-1zM169 0h1v1h-1zM170 0h1v1h-1zM171 0h1v1h-1zM172 0h1v1h-1zM168 1h1v1h-1zM168 2h1v1h-1zM168 3h1v1h-1zM169 3h1v1h-1zM170 3h1v1h-1zM171 3h1v1h-1zM168 4h1v1h-1zM168 5h1v1h-1zM168 6h1v1h-1zM180 0h1v1h-1zM181 0h1v1h-1zM182 0h1v1h-1zM183 0h1v1h-1zM184 0h1v1h-1zM180 1h1v1h-1zM180 2h1v1h-1zM180 3h1v1h-1zM181 3h1v1h-1zM182 3h1v1h-1zM183 3h1v1h-1zM180 4h1v1h-1zM180 5h1v1h-1zM180 6h1v1h-1zM187 0h1v1h-1zM188 0h1v1h-1zM189 0h1v1h-1zM186 1h1v1h-1zM190 1h1v1h-1zM186 2h1v1h-1zM190 2h1v1h-1zM186 3h1v1h-1zM190 3h1v1h-1zM186 4h1v1h-1zM190 4h1v1h-1zM186 5h1v1h-1zM190 5h1v1h-1zM187 6h1v1h-1zM188 6h1v1h-1zM189 6h1v1h-1zM192 0h1v1h-1zM193 0h1v1h-1zM194 0h1v1h-1zM195 0h1v1h-1zM192 1h1v1h-1zM196 1h1v1h-1zM192 2h1v1h-1zM196 2h1v1h-1zM192 3h1v1h-1zM193 3h1v1h-1zM194 3h1v1h-1zM195 3h1v1h-1zM192 4h1v1h-1zM194 4h1v1h-1zM192 5h1v1h-1zM195 5h1v1h-1zM192 6h1v1h-1zM196 6h1v1h-1zM199 0h1v1h-1zM200 0h1v1h-1zM201 0h1v1h-1zM202 0h1v1h-1zM198 1h1v1h-1zM198 2h1v1h-1zM198 3h1v1h-1zM200 3h1v1h-1zM201 3h1v1h-1zM202 3h1v1h-1zM198 4h1v1h-1zM202 4h1v1h-1zM198 5h1v1h-1zM202 5h1v1h-1zM199 6h1v1h-1zM200 6h1v1h-1zM201 6h1v1h-1zM202 6h1v1h-1zM205 0h1v1h-1zM206 0h1v1h-1zM207 0h1v1h-1zM204 1h1v1h-1zM208 1h1v1h-1zM204 2h1v1h-1zM208 2h1v1h-1zM204 3h1v1h-1zM208 3h1v1h-1zM204 4h1v1h-1zM208 4h1v1h-1zM204 5h1v1h-1zM208 5h1v1h-1zM205 6h1v1h-1zM206 6h1v1h-1zM207 6h1v1h-1zM210 0h1v1h-1zM211 0h1v1h-1zM212 0h1v1h-1zM213 0h1v1h-1zM214 0h1v1h-1zM212 1h1v1h-1zM212 2h1v1h-1zM212 3h1v1h-1zM212 4h1v1h-1zM212 5h1v1h-1zM212 6h1v1h-1zM216 0h1v1h-1zM217 0h1v1h-1zM218 0h1v1h-1zM219 0h1v1h-1zM220 0h1v1h-1zM218 1h1v1h-1zM218 2h1v1h-1zM218 3h1v1h-1zM218 4h1v1h-1zM218 5h1v1h-1zM218 6h1v1h-1zM222 0h1v1h-1zM223 0h1v1h-1zM224 0h1v1h-1zM225 0h1v1h-1zM226 0h1v1h-1zM222 1h1v1h-1zM222 2h1v1h-1zM222 3h1v1h-1zM223 3h1v1h-1zM224 3h1v1h-1zM225 3h1v1h-1zM222 4h1v1h-1zM222 5h1v1h-1zM222 6h1v1h-1zM223 6h1v1h-1zM224 6h1v1h-1zM225 6h1v1h-1zM226 6h1v1h-1zM228 0h1v1h-1zM232 0h1v1h-1zM228 1h1v1h-1zM229 1h1v1h-1zM232 1h1v1h-1zM228 2h1v1h-1zM229 2h1v1h-1zM232 2h1v1h-1zM228 3h1v1h-1zM230 3h1v1h-1zM232 3h1v1h-1zM228 4h1v1h-1zM231 4h1v1h-1zM232 4h1v1h-1zM228 5h1v1h-1zM231 5h1v1h-1zM232 5h1v1h-1zM228 6h1v1h-1zM232 6h1v1h-1zM240 0h1v1h-1zM241 0h1v1h-1zM242 0h1v1h-1zM243 0h1v1h-1zM240 1h1v1h-1zM244 1h1v1h-1zM240 2h1v1h-1zM244 2h1v1h-1zM240 3h1v1h-1zM244 3h1v1h-1zM240 4h1v1h-1zM244 4h1v1h-1zM240 5h1v1h-1zM244 5h1v1h-1zM240 6h1v1h-1zM241 6h1v1h-1zM242 6h1v1h-1zM243 6h1v1h-1zM246 0h1v1h-1zM247 0h1v1h-1zM248 0h1v1h-1zM249 0h1v1h-1zM250 0h1v1h-1zM248 1h1v1h-1zM248 2h1v1h-1zM248 3h1v1h-1zM248 4h1v1h-1zM248 5h1v1h-1zM246 6h1v1h-1zM247 6h1v1h-1zM248 6h1v1h-1zM249 6h1v1h-1zM250 6h1v1h-1zM253 0h1v1h-1zM254 0h1v1h-1zM255 0h1v1h-1zM256 0h1v1h-1zM252 1h1v1h-1zM252 2h1v1h-1zM253 3h1v1h-1zM254 3h1v1h-1zM255 3h1v1h-1zM256 4h1v1h-1zM256 5h1v1h-1zM252 6h1v1h-1zM253 6h1v1h-1zM254 6h1v1h-1zM255 6h1v1h-1zM258 0h1v1h-1zM259 0h1v1h-1zM260 0h1v1h-1zM261 0h1v1h-1zM258 1h1v1h-1zM262 1h1v1h-1zM258 2h1v1h-1zM262 2h1v1h-1zM258 3h1v1h-1zM259 3h1v1h-1zM260 3h1v1h-1zM261 3h1v1h-1zM258 4h1v1h-1zM258 5h1v1h-1zM258 6h1v1h-1zM264 0h1v1h-1zM264 1h1v1h-1zM264 2h1v1h-1zM264 3h1v1h-1zM264 4h1v1h-1zM264 5h1v1h-1zM264 6h1v1h-1zM265 6h1v1h-1zM266 6h1v1h-1zM267 6h1v1h-1zM268 6h1v1h-1zM271 0h1v1h-1zM272 0h1v1h-1zM273 0h1v1h-1zM270 1h1v1h-1zM274 1h1v1h-1zM270 2h1v1h-1zM274 2h1v1h-1zM270 3h1v1h-1zM271 3h1v1h-1zM272 3h1v1h-1zM273 3h1v1h-1zM274 3h1v1h-1zM270 4h1v1h-1zM274 4h1v1h-1zM270 5h1v1h-1zM274 5h1v1h-1zM270 6h1v1h-1zM274 6h1v1h-1zM276 0h1v1h-1zM280 0h1v1h-1zM276 1h1v1h-1zM280 1h1v1h-1zM277 2h1v1h-1zM279 2h1v1h-1zM278 3h1v1h-1zM278 4h1v1h-1zM278 5h1v1h-1zM278 6h1v1h-1zM288 0h1v1h-1zM292 0h1v1h-1zM288 1h1v1h-1zM292 1h1v1h-1zM288 2h1v1h-1zM292 2h1v1h-1zM288 3h1v1h-1zM289 3h1v1h-1zM290 3h1v1h-1zM291 3h1v1h-1zM292 3h1v1h-1zM288 4h1v1h-1zM292 4h1v1h-1zM288 5h1v1h-1zM292 5h1v1h-1zM288 6h1v1h-1zM292 6h1v1h-1zM295 0h1v1h-1zM296 0h1v1h-1zM297 0h1v1h-1zM294 1h1v1h-1zM298 1h1v1h-1zM294 2h1v1h-1zM298 2h1v1h-1zM294 3h1v1h-1zM295 3h1v1h-1zM296 3h1v1h-1zM297 3h1v1h-1zM298 3h1v1h-1zM294 4h1v1h-1zM298 4h1v1h-1zM294 5h1v1h-1zM298 5h1v1h-1zM294 6h1v1h-1zM298 6h1v1h-1zM300 0h1v1h-1zM301 0h1v1h-1zM302 0h1v1h-1zM303 0h1v1h-1zM300 1h1v1h-1zM304 1h1v1h-1zM300 2h1v1h-1zM304 2h1v1h-1zM300 3h1v1h-1zM301 3h1v1h-1zM302 3h1v1h-1zM303 3h1v1h-1zM300 4h1v1h-1zM302 4h1v1h-1zM300 5h1v1h-1zM303 5h1v1h-1zM300 6h1v1h-1zM304 6h1v1h-1zM306 0h1v1h-1zM307 0h1v1h-1zM308 0h1v1h-1zM309 0h1v1h-1zM306 1h1v1h-1zM310 1h1v1h-1zM306 2h1v1h-1zM310 2h1v1h-1zM306 3h1v1h-1zM310 3h1v1h-1zM306 4h1v1h-1zM310 4h1v1h-1zM306 5h1v1h-1zM310 5h1v1h-1zM306 6h1v1h-1zM307 6h1v1h-1zM308 6h1v1h-1zM309 6h1v1h-1zM312 0h1v1h-1zM316 0h1v1h-1zM312 1h1v1h-1zM316 1h1v1h-1zM312 2h1v1h-1zM316 2h1v1h-1zM312 3h1v1h-1zM314 3h1v1h-1zM316 3h1v1h-1zM312 4h1v1h-1zM314 4h1v1h-1zM316 4h1v1h-1zM312 5h1v1h-1zM314 5h1v1h-1zM316 5h1v1h-1zM313 6h1v1h-1zM315 6h1v1h-1zM319 0h1v1h-1zM320 0h1v1h-1zM321 0h1v1h-1zM318 1h1v1h-1zM322 1h1v1h-1zM318 2h1v1h-1zM322 2h1v1h-1zM318 3h1v1h-1zM319 3h1v1h-1zM320 3h1v1h-1zM321 3h1v1h-1zM322 3h1v1h-1zM318 4h1v1h-1zM322 4h1v1h-1zM318 5h1v1h-1zM322 5h1v1h-1zM318 6h1v1h-1zM322 6h1v1h-1zM324 0h1v1h-1zM325 0h1v1h-1zM326 0h1v1h-1zM327 0h1v1h-1zM324 1h1v1h-1zM328 1h1v1h-1zM324 2h1v1h-1zM328 2h1v1h-1zM324 3h1v1h-1zM325 3h1v1h-1zM326 3h1v1h-1zM327 3h1v1h-1zM324 4h1v1h-1zM326 4h1v1h-1zM324 5h1v1h-1zM327 5h1v1h-1zM324 6h1v1h-1zM328 6h1v1h-1zM330 0h1v1h-1zM331 0h1v1h-1zM332 0h1v1h-1zM333 0h1v1h-1zM334 0h1v1h-1zM330 1h1v1h-1zM330 2h1v1h-1zM330 3h1v1h-1zM331 3h1v1h-1zM332 3h1v1h-1zM333 3h1v1h-1zM330 4h1v1h-1zM330 5h1v1h-1zM330 6h1v1h-1zM331 6h1v1h-1zM332 6h1v1h-1zM333 6h1v1h-1zM334 6h1v1h-1zM337 5h1v1h-1zM338 5h1v1h-1zM337 6h1v1h-1zM338 6h1v1h-1z" fill="#77d598"/></g><g transform="translate(51 234) scale(1.8)" ><path d="M1 0h1v1h-1zM2 0h1v1h-1zM3 0h1v1h-1zM0 1h1v1h-1zM4 1h1v1h-1zM0 2h1v1h-1zM4 2h1v1h-1zM0 3h1v1h-1zM4 3h1v1h-1zM0 4h1v1h-1zM4 4h1v1h-1zM0 5h1v1h-1zM4 5h1v1h-1zM1 6h1v1h-1zM2 6h1v1h-1zM3 6h1v1h-1zM6 0h1v1h-1zM7 0h1v1h-1zM8 0h1v1h-1zM9 0h1v1h-1zM6 1h1v1h-1zM10 1h1v1h-1zM6 2h1v1h-1zM10 2h1v1h-1zM6 3h1v1h-1zM7 3h1v1h-1zM8 3h1v1h-1zM9 3h1v1h-1zM6 4h1v1h-1zM8 4h1v1h-1zM6 5h1v1h-1zM9 5h1v1h-1zM6 6h1v1h-1zM10 6h1v1h-1zM13 0h1v1h-1zM14 0h1v1h-1zM15 0h1v1h-1zM12 1h1v1h-1zM16 1h1v1h-1zM12 2h1v1h-1zM16 2h1v1h-1zM12 3h1v1h-1zM13 3h1v1h-1zM14 3h1v1h-1zM15 3h1v1h-1zM16 3h1v1h-1zM12 4h1v1h-1zM16 4h1v1h-1zM12 5h1v1h-1zM16 5h1v1h-1zM12 6h1v1h-1zM16 6h1v1h-1zM18 0h1v1h-1zM22 0h1v1h-1zM18 1h1v1h-1zM19 1h1v1h-1zM22 1h1v1h-1zM18 2h1v1h-1zM19 2h1v1h-1zM22 2h1v1h-1zM18 3h1v1h-1zM20 3h1v1h-1zM22 3h1v1h-1zM18 4h1v1h-1zM21 4h1v1h-1zM22 4h1v1h-1zM18 5h1v1h-1zM21 5h1v1h-1zM22 5h1v1h-1zM18 6h1v1h-1zM22 6h1v1h-1zM25 0h1v1h-1zM26 0h1v1h-1zM27 0h1v1h-1zM28 0h1v1h-1zM24 1h1v1h-1zM24 2h1v1h-1zM24 3h1v1h-1zM26 3h1v1h-1zM27 3h1v1h-1zM28 3h1v1h-1zM24 4h1v1h-1zM28 4h1v1h-1zM24 5h1v1h-1zM28 5h1v1h-1zM25 6h1v1h-1zM26 6h1v1h-1zM27 6h1v1h-1zM28 6h1v1h-1zM30 0h1v1h-1zM31 0h1v1h-1zM32 0h1v1h-1zM33 0h1v1h-1zM34 0h1v1h-1zM30 1h1v1h-1zM30 2h1v1h-1zM30 3h1v1h-1zM31 3h1v1h-1zM32 3h1v1h-1zM33 3h1v1h-1zM30 4h1v1h-1zM30 5h1v1h-1zM30 6h1v1h-1zM31 6h1v1h-1zM32 6h1v1h-1zM33 6h1v1h-1zM34 6h1v1h-1zM42 0h1v1h-1zM43 0h1v1h-1zM44 0h1v1h-1zM45 0h1v1h-1zM42 1h1v1h-1zM46 1h1v1h-1zM42 2h1v1h-1zM46 2h1v1h-1zM42 3h1v1h-1zM46 3h1v1h-1zM42 4h1v1h-1zM46 4h1v1h-1zM42 5h1v1h-1zM46 5h1v1h-1zM42 6h1v1h-1zM43 6h1v1h-1zM44 6h1v1h-1zM45 6h1v1h-1zM49 0h1v1h-1zM50 0h1v1h-1zM51 0h1v1h-1zM48 1h1v1h-1zM52 1h1v1h-1zM48 2h1v1h-1zM52 2h1v1h-1zM48 3h1v1h-1zM52 3h1v1h-1zM48 4h1v1h-1zM52 4h1v1h-1zM48 5h1v1h-1zM52 5h1v1h-1zM49 6h1v1h-1zM50 6h1v1h-1zM51 6h1v1h-1zM54 0h1v1h-1zM55 0h1v1h-1zM56 0h1v1h-1zM57 0h1v1h-1zM58 0h1v1h-1zM56 1h1v1h-1zM56 2h1v1h-1zM56 3h1v1h-1zM56 4h1v1h-1zM56 5h1v1h-1zM56 6h1v1h-1zM61 0h1v1h-1zM62 0h1v1h-1zM63 0h1v1h-1zM64 0h1v1h-1zM60 1h1v1h-1zM60 2h1v1h-1zM61 3h1v1h-1zM62 3h1v1h-1zM63 3h1v1h-1zM64 4h1v1h-1zM64 5h1v1h-1zM60 6h1v1h-1zM61 6h1v1h-1zM62 6h1v1h-1zM63 6h1v1h-1zM73 0h1v1h-1zM74 0h1v1h-1zM75 0h1v1h-1zM76 0h1v1h-1zM72 1h1v1h-1zM72 2h1v1h-1zM72 3h1v1h-1zM74 3h1v1h-1zM75 3h1v1h-1zM76 3h1v1h-1zM72 4h1v1h-1zM76 4h1v1h-1zM72 5h1v1h-1zM76 5h1v1h-1zM73 6h1v1h-1zM74 6h1v1h-1zM75 6h1v1h-1zM76 6h1v1h-1zM78 0h1v1h-1zM78 1h1v1h-1zM78 2h1v1h-1zM78 3h1v1h-1zM78 4h1v1h-1zM78 5h1v1h-1zM78 6h1v1h-1zM79 6h1v1h-1zM80 6h1v1h-1zM81 6h1v1h-1zM82 6h1v1h-1zM85 0h1v1h-1zM86 0h1v1h-1zM87 0h1v1h-1zM84 1h1v1h-1zM88 1h1v1h-1zM84 2h1v1h-1zM88 2h1v1h-1zM84 3h1v1h-1zM88 3h1v1h-1zM84 4h1v1h-1zM88 4h1v1h-1zM84 5h1v1h-1zM88 5h1v1h-1zM85 6h1v1h-1zM86 6h1v1h-1zM87 6h1v1h-1zM90 0h1v1h-1zM94 0h1v1h-1zM90 1h1v1h-1zM94 1h1v1h-1zM90 2h1v1h-1zM94 2h1v1h-1zM90 3h1v1h-1zM92 3h1v1h-1zM94 3h1v1h-1zM90 4h1v1h-1zM92 4h1v1h-1zM94 4h1v1h-1zM90 5h1v1h-1zM92 5h1v1h-1zM94 5h1v1h-1zM91 6h1v1h-1zM93 6h1v1h-1zM103 0h1v1h-1zM104 0h1v1h-1zM105 0h1v1h-1zM102 1h1v1h-1zM106 1h1v1h-1zM102 2h1v1h-1zM106 2h1v1h-1zM102 3h1v1h-1zM103 3h1v1h-1zM104 3h1v1h-1zM105 3h1v1h-1zM106 3h1v1h-1zM102 4h1v1h-1zM106 4h1v1h-1zM102 5h1v1h-1zM106 5h1v1h-1zM102 6h1v1h-1zM106 6h1v1h-1zM108 0h1v1h-1zM109 0h1v1h-1zM110 0h1v1h-1zM111 0h1v1h-1zM108 1h1v1h-1zM112 1h1v1h-1zM108 2h1v1h-1zM112 2h1v1h-1zM108 3h1v1h-1zM109 3h1v1h-1zM110 3h1v1h-1zM111 3h1v1h-1zM108 4h1v1h-1zM112 4h1v1h-1zM108 5h1v1h-1zM112 5h1v1h-1zM108 6h1v1h-1zM109 6h1v1h-1zM110 6h1v1h-1zM111 6h1v1h-1zM115 0h1v1h-1zM116 0h1v1h-1zM117 0h1v1h-1zM114 1h1v1h-1zM118 1h1v1h-1zM114 2h1v1h-1zM118 2h1v1h-1zM114 3h1v1h-1zM118 3h1v1h-1zM114 4h1v1h-1zM118 4h1v1h-1zM114 5h1v1h-1zM118 5h1v1h-1zM115 6h1v1h-1zM116 6h1v1h-1zM117 6h1v1h-1zM120 0h1v1h-1zM124 0h1v1h-1zM120 1h1v1h-1zM124 1h1v1h-1zM120 2h1v1h-1zM124 2h1v1h-1zM120 3h1v1h-1zM124 3h1v1h-1zM120 4h1v1h-1zM124 4h1v1h-1zM121 5h1v1h-1zM123 5h1v1h-1zM122 6h1v1h-1zM126 0h1v1h-1zM127 0h1v1h-1zM128 0h1v1h-1zM129 0h1v1h-1zM130 0h1v1h-1zM126 1h1v1h-1zM126 2h1v1h-1zM126 3h1v1h-1zM127 3h1v1h-1zM128 3h1v1h-1zM129 3h1v1h-1zM126 4h1v1h-1zM126 5h1v1h-1zM126 6h1v1h-1zM127 6h1v1h-1zM128 6h1v1h-1zM129 6h1v1h-1zM130 6h1v1h-1zM138 0h1v1h-1zM139 0h1v1h-1zM140 0h1v1h-1zM141 0h1v1h-1zM142 0h1v1h-1zM140 1h1v1h-1zM140 2h1v1h-1zM140 3h1v1h-1zM140 4h1v1h-1zM140 5h1v1h-1zM140 6h1v1h-1zM144 0h1v1h-1zM148 0h1v1h-1zM144 1h1v1h-1zM148 1h1v1h-1zM144 2h1v1h-1zM148 2h1v1h-1zM144 3h1v1h-1zM145 3h1v1h-1zM146 3h1v1h-1zM147 3h1v1h-1zM148 3h1v1h-1zM144 4h1v1h-1zM148 4h1v1h-1zM144 5h1v1h-1zM148 5h1v1h-1zM144 6h1v1h-1zM148 6h1v1h-1zM150 0h1v1h-1zM151 0h1v1h-1zM152 0h1v1h-1zM153 0h1v1h-1zM154 0h1v1h-1zM150 1h1v1h-1zM150 2h1v1h-1zM150 3h1v1h-1zM151 3h1v1h-1zM152 3h1v1h-1zM153 3h1v1h-1zM150 4h1v1h-1zM150 5h1v1h-1zM150 6h1v1h-1zM151 6h1v1h-1zM152 6h1v1h-1zM153 6h1v1h-1zM154 6h1v1h-1zM163 0h1v1h-1zM164 0h1v1h-1zM165 0h1v1h-1zM162 1h1v1h-1zM166 1h1v1h-1zM162 2h1v1h-1zM166 2h1v1h-1zM162 3h1v1h-1zM163 3h1v1h-1zM164 3h1v1h-1zM165 3h1v1h-1zM166 3h1v1h-1zM162 4h1v1h-1zM166 4h1v1h-1zM162 5h1v1h-1zM166 5h1v1h-1zM162 6h1v1h-1zM166 6h1v1h-1zM168 0h1v1h-1zM169 0h1v1h-1zM170 0h1v1h-1zM171 0h1v1h-1zM172 0h1v1h-1zM170 1h1v1h-1zM170 2h1v1h-1zM170 3h1v1h-1zM170 4h1v1h-1zM170 5h1v1h-1zM168 6h1v1h-1zM169 6h1v1h-1zM170 6h1v1h-1zM171 6h1v1h-1zM172 6h1v1h-1zM174 0h1v1h-1zM175 0h1v1h-1zM176 0h1v1h-1zM177 0h1v1h-1zM174 1h1v1h-1zM178 1h1v1h-1zM174 2h1v1h-1zM178 2h1v1h-1zM174 3h1v1h-1zM175 3h1v1h-1zM176 3h1v1h-1zM177 3h1v1h-1zM174 4h1v1h-1zM176 4h1v1h-1zM174 5h1v1h-1zM177 5h1v1h-1zM174 6h1v1h-1zM178 6h1v1h-1zM180 0h1v1h-1zM180 1h1v1h-1zM180 2h1v1h-1zM180 3h1v1h-1zM180 4h1v1h-1zM180 5h1v1h-1zM180 6h1v1h-1zM181 6h1v1h-1zM182 6h1v1h-1zM183 6h1v1h-1zM184 6h1v1h-1zM187 0h1v1h-1zM188 0h1v1h-1zM189 0h1v1h-1zM186 1h1v1h-1zM190 1h1v1h-1zM186 2h1v1h-1zM190 2h1v1h-1zM186 3h1v1h-1zM190 3h1v1h-1zM186 4h1v1h-1zM190 4h1v1h-1zM186 5h1v1h-1zM190 5h1v1h-1zM187 6h1v1h-1zM188 6h1v1h-1zM189 6h1v1h-1zM193 0h1v1h-1zM194 0h1v1h-1zM195 0h1v1h-1zM196 0h1v1h-1zM192 1h1v1h-1zM192 2h1v1h-1zM192 3h1v1h-1zM192 4h1v1h-1zM192 5h1v1h-1zM193 6h1v1h-1zM194 6h1v1h-1zM195 6h1v1h-1zM196 6h1v1h-1zM198 0h1v1h-1zM202 0h1v1h-1zM198 1h1v1h-1zM201 1h1v1h-1zM198 2h1v1h-1zM200 2h1v1h-1zM198 3h1v1h-1zM199 3h1v1h-1zM198 4h1v1h-1zM200 4h1v1h-1zM198 5h1v1h-1zM201 5h1v1h-1zM198 6h1v1h-1zM202 6h1v1h-1zM205 5h1v1h-1zM206 5h1v1h-1zM205 6h1v1h-1zM206 6h1v1h-1zM217 0h1v1h-1zM218 0h1v1h-1zM219 0h1v1h-1zM220 0h1v1h-1zM216 1h1v1h-1zM216 2h1v1h-1zM216 3h1v1h-1zM216 4h1v1h-1zM216 5h1v1h-1zM217 6h1v1h-1zM218 6h1v1h-1zM219 6h1v1h-1zM220 6h1v1h-1zM223 0h1v1h-1zM224 0h1v1h-1zM225 0h1v1h-1zM222 1h1v1h-1zM226 1h1v1h-1zM222 2h1v1h-1zM226 2h1v1h-1zM222 3h1v1h-1zM226 3h1v1h-1zM222 4h1v1h-1zM226 4h1v1h-1zM222 5h1v1h-1zM226 5h1v1h-1zM223 6h1v1h-1zM224 6h1v1h-1zM225 6h1v1h-1zM228 0h1v1h-1zM229 0h1v1h-1zM230 0h1v1h-1zM231 0h1v1h-1zM228 1h1v1h-1zM232 1h1v1h-1zM228 2h1v1h-1zM232 2h1v1h-1zM228 3h1v1h-1zM229 3h1v1h-1zM230 3h1v1h-1zM231 3h1v1h-1zM228 4h1v1h-1zM228 5h1v1h-1zM228 6h1v1h-1zM234 0h1v1h-1zM235 0h1v1h-1zM236 0h1v1h-1zM237 0h1v1h-1zM234 1h1v1h-1zM238 1h1v1h-1zM234 2h1v1h-1zM238 2h1v1h-1zM234 3h1v1h-1zM235 3h1v1h-1zM236 3h1v1h-1zM237 3h1v1h-1zM234 4h1v1h-1zM234 5h1v1h-1zM234 6h1v1h-1zM240 0h1v1h-1zM241 0h1v1h-1zM242 0h1v1h-1zM243 0h1v1h-1zM244 0h1v1h-1zM240 1h1v1h-1zM240 2h1v1h-1zM240 3h1v1h-1zM241 3h1v1h-1zM242 3h1v1h-1zM243 3h1v1h-1zM240 4h1v1h-1zM240 5h1v1h-1zM240 6h1v1h-1zM241 6h1v1h-1zM242 6h1v1h-1zM243 6h1v1h-1zM244 6h1v1h-1zM246 0h1v1h-1zM247 0h1v1h-1zM248 0h1v1h-1zM249 0h1v1h-1zM246 1h1v1h-1zM250 1h1v1h-1zM246 2h1v1h-1zM250 2h1v1h-1zM246 3h1v1h-1zM247 3h1v1h-1zM248 3h1v1h-1zM249 3h1v1h-1zM246 4h1v1h-1zM248 4h1v1h-1zM246 5h1v1h-1zM249 5h1v1h-1zM246 6h1v1h-1zM250 6h1v1h-1zM258 0h1v1h-1zM259 0h1v1h-1zM260 0h1v1h-1zM261 0h1v1h-1zM258 1h1v1h-1zM262 1h1v1h-1zM258 2h1v1h-1zM262 2h1v1h-1zM258 3h1v1h-1zM259 3h1v1h-1zM260 3h1v1h-1zM261 3h1v1h-1zM258 4h1v1h-1zM262 4h1v1h-1zM258 5h1v1h-1zM262 5h1v1h-1zM258 6h1v1h-1zM259 6h1v1h-1zM260 6h1v1h-1zM261 6h1v1h-1zM265 0h1v1h-1zM266 0h1v1h-1zM267 0h1v1h-1zM264 1h1v1h-1zM268 1h1v1h-1zM264 2h1v1h-1zM268 2h1v1h-1zM264 3h1v1h-1zM265 3h1v1h-1zM266 3h1v1h-1zM267 3h1v1h-1zM268 3h1v1h-1zM264 4h1v1h-1zM268 4h1v1h-1zM264 5h1v1h-1zM268 5h1v1h-1zM264 6h1v1h-1zM268 6h1v1h-1zM270 0h1v1h-1zM271 0h1v1h-1zM272 0h1v1h-1zM273 0h1v1h-1zM270 1h1v1h-1zM274 1h1v1h-1zM270 2h1v1h-1zM274 2h1v1h-1zM270 3h1v1h-1zM271 3h1v1h-1zM272 3h1v1h-1zM273 3h1v1h-1zM270 4h1v1h-1zM272 4h1v1h-1zM270 5h1v1h-1zM273 5h1v1h-1zM270 6h1v1h-1zM274 6h1v1h-1zM277 0h1v1h-1zM278 0h1v1h-1zM279 0h1v1h-1zM280 0h1v1h-1zM276 1h1v1h-1zM276 2h1v1h-1zM277 3h1v1h-1zM278 3h1v1h-1zM279 3h1v1h-1zM280 4h1v1h-1zM280 5h1v1h-1zM276 6h1v1h-1zM277 6h1v1h-1zM278 6h1v1h-1zM279 6h1v1h-1zM288 0h1v1h-1zM289 0h1v1h-1zM290 0h1v1h-1zM291 0h1v1h-1zM288 1h1v1h-1zM292 1h1v1h-1zM288 2h1v1h-1zM292 2h1v1h-1zM288 3h1v1h-1zM289 3h1v1h-1zM290 3h1v1h-1zM291 3h1v1h-1zM288 4h1v1h-1zM290 4h1v1h-1zM288 5h1v1h-1zM291 5h1v1h-1zM288 6h1v1h-1zM292 6h1v1h-1zM294 0h1v1h-1zM295 0h1v1h-1zM296 0h1v1h-1zM297 0h1v1h-1zM298 0h1v1h-1zM296 1h1v1h-1zM296 2h1v1h-1zM296 3h1v1h-1zM296 4h1v1h-1zM296 5h1v1h-1zM294 6h1v1h-1zM295 6h1v1h-1zM296 6h1v1h-1zM297 6h1v1h-1zM298 6h1v1h-1zM300 0h1v1h-1zM301 0h1v1h-1zM302 0h1v1h-1zM303 0h1v1h-1zM300 1h1v1h-1zM304 1h1v1h-1zM300 2h1v1h-1zM304 2h1v1h-1zM300 3h1v1h-1zM301 3h1v1h-1zM302 3h1v1h-1zM303 3h1v1h-1zM300 4h1v1h-1zM300 5h1v1h-1zM300 6h1v1h-1zM306 0h1v1h-1zM307 0h1v1h-1zM308 0h1v1h-1zM309 0h1v1h-1zM306 1h1v1h-1zM310 1h1v1h-1zM306 2h1v1h-1zM310 2h1v1h-1zM306 3h1v1h-1zM307 3h1v1h-1zM308 3h1v1h-1zM309 3h1v1h-1zM306 4h1v1h-1zM306 5h1v1h-1zM306 6h1v1h-1zM312 0h1v1h-1zM312 1h1v1h-1zM312 2h1v1h-1zM312 3h1v1h-1zM312 4h1v1h-1zM312 5h1v1h-1zM312 6h1v1h-1zM313 6h1v1h-1zM314 6h1v1h-1zM315 6h1v1h-1zM316 6h1v1h-1zM318 0h1v1h-1zM319 0h1v1h-1zM320 0h1v1h-1zM321 0h1v1h-1zM322 0h1v1h-1zM318 1h1v1h-1zM318 2h1v1h-1zM318 3h1v1h-1zM319 3h1v1h-1zM320 3h1v1h-1zM321 3h1v1h-1zM318 4h1v1h-1zM318 5h1v1h-1zM318 6h1v1h-1zM319 6h1v1h-1zM320 6h1v1h-1zM321 6h1v1h-1zM322 6h1v1h-1zM325 5h1v1h-1zM326 5h1v1h-1zM325 6h1v1h-1zM326 6h1v1h-1z" fill="#77d598"/></g><g transform="translate(51 260) scale(1.8)" ><path d="M1 0h1v1h-1zM2 0h1v1h-1zM3 0h1v1h-1zM0 1h1v1h-1zM4 1h1v1h-1zM0 2h1v1h-1zM4 2h1v1h-1zM0 3h1v1h-1zM4 3h1v1h-1zM0 4h1v1h-1zM4 4h1v1h-1zM0 5h1v1h-1zM4 5h1v1h-1zM1 6h1v1h-1zM2 6h1v1h-1zM3 6h1v1h-1zM6 0h1v1h-1zM10 0h1v1h-1zM6 1h1v1h-1zM7 1h1v1h-1zM10 1h1v1h-1zM6 2h1v1h-1zM7 2h1v1h-1zM10 2h1v1h-1zM6 3h1v1h-1zM8 3h1v1h-1zM10 3h1v1h-1zM6 4h1v1h-1zM9 4h1v1h-1zM10 4h1v1h-1zM6 5h1v1h-1zM9 5h1v1h-1zM10 5h1v1h-1zM6 6h1v1h-1zM10 6h1v1h-1zM18 0h1v1h-1zM19 0h1v1h-1zM20 0h1v1h-1zM21 0h1v1h-1zM22 0h1v1h-1zM18 1h1v1h-1zM18 2h1v1h-1zM18 3h1v1h-1zM19 3h1v1h-1zM20 3h1v1h-1zM21 3h1v1h-1zM18 4h1v1h-1zM18 5h1v1h-1zM18 6h1v1h-1zM19 6h1v1h-1zM20 6h1v1h-1zM21 6h1v1h-1zM22 6h1v1h-1zM24 0h1v1h-1zM28 0h1v1h-1zM24 1h1v1h-1zM28 1h1v1h-1zM24 2h1v1h-1zM28 2h1v1h-1zM24 3h1v1h-1zM28 3h1v1h-1zM24 4h1v1h-1zM28 4h1v1h-1zM25 5h1v1h-1zM27 5h1v1h-1zM26 6h1v1h-1zM30 0h1v1h-1zM31 0h1v1h-1zM32 0h1v1h-1zM33 0h1v1h-1zM34 0h1v1h-1zM30 1h1v1h-1zM30 2h1v1h-1zM30 3h1v1h-1zM31 3h1v1h-1zM32 3h1v1h-1zM33 3h1v1h-1zM30 4h1v1h-1zM30 5h1v1h-1zM30 6h1v1h-1zM31 6h1v1h-1zM32 6h1v1h-1zM33 6h1v1h-1zM34 6h1v1h-1zM36 0h1v1h-1zM37 0h1v1h-1zM38 0h1v1h-1zM39 0h1v1h-1zM36 1h1v1h-1zM40 1h1v1h-1zM36 2h1v1h-1zM40 2h1v1h-1zM36 3h1v1h-1zM37 3h1v1h-1zM38 3h1v1h-1zM39 3h1v1h-1zM36 4h1v1h-1zM38 4h1v1h-1zM36 5h1v1h-1zM39 5h1v1h-1zM36 6h1v1h-1zM40 6h1v1h-1zM42 0h1v1h-1zM46 0h1v1h-1zM42 1h1v1h-1zM46 1h1v1h-1zM43 2h1v1h-1zM45 2h1v1h-1zM44 3h1v1h-1zM44 4h1v1h-1zM44 5h1v1h-1zM44 6h1v1h-1zM55 0h1v1h-1zM56 0h1v1h-1zM57 0h1v1h-1zM58 0h1v1h-1zM54 1h1v1h-1zM54 2h1v1h-1zM55 3h1v1h-1zM56 3h1v1h-1zM57 3h1v1h-1zM58 4h1v1h-1zM58 5h1v1h-1zM54 6h1v1h-1zM55 6h1v1h-1zM56 6h1v1h-1zM57 6h1v1h-1zM60 0h1v1h-1zM64 0h1v1h-1zM60 1h1v1h-1zM64 1h1v1h-1zM60 2h1v1h-1zM64 2h1v1h-1zM60 3h1v1h-1zM61 3h1v1h-1zM62 3h1v1h-1zM63 3h1v1h-1zM64 3h1v1h-1zM60 4h1v1h-1zM64 4h1v1h-1zM60 5h1v1h-1zM64 5h1v1h-1zM60 6h1v1h-1zM64 6h1v1h-1zM66 0h1v1h-1zM67 0h1v1h-1zM68 0h1v1h-1zM69 0h1v1h-1zM70 0h1v1h-1zM66 1h1v1h-1zM66 2h1v1h-1zM66 3h1v1h-1zM67 3h1v1h-1zM68 3h1v1h-1zM69 3h1v1h-1zM66 4h1v1h-1zM66 5h1v1h-1zM66 6h1v1h-1zM67 6h1v1h-1zM68 6h1v1h-1zM69 6h1v1h-1zM70 6h1v1h-1zM72 0h1v1h-1zM72 1h1v1h-1zM72 2h1v1h-1zM72 3h1v1h-1zM72 4h1v1h-1zM72 5h1v1h-1zM72 6h1v1h-1zM73 6h1v1h-1zM74 6h1v1h-1zM75 6h1v1h-1zM76 6h1v1h-1zM78 0h1v1h-1zM79 0h1v1h-1zM80 0h1v1h-1zM81 0h1v1h-1zM82 0h1v1h-1zM78 1h1v1h-1zM78 2h1v1h-1zM78 3h1v1h-1zM79 3h1v1h-1zM80 3h1v1h-1zM81 3h1v1h-1zM78 4h1v1h-1zM78 5h1v1h-1zM78 6h1v1h-1zM85 1h1v1h-1zM86 1h1v1h-1zM85 2h1v1h-1zM86 2h1v1h-1zM85 4h1v1h-1zM86 4h1v1h-1zM85 5h1v1h-1zM86 5h1v1h-1zM97 0h1v1h-1zM98 0h1v1h-1zM99 0h1v1h-1zM96 1h1v1h-1zM100 1h1v1h-1zM96 2h1v1h-1zM100 2h1v1h-1zM96 3h1v1h-1zM97 3h1v1h-1zM98 3h1v1h-1zM99 3h1v1h-1zM100 3h1v1h-1zM96 4h1v1h-1zM100 4h1v1h-1zM96 5h1v1h-1zM100 5h1v1h-1zM96 6h1v1h-1zM100 6h1v1h-1zM108 0h1v1h-1zM112 0h1v1h-1zM108 1h1v1h-1zM112 1h1v1h-1zM108 2h1v1h-1zM112 2h1v1h-1zM108 3h1v1h-1zM110 3h1v1h-1zM112 3h1v1h-1zM108 4h1v1h-1zM110 4h1v1h-1zM112 4h1v1h-1zM108 5h1v1h-1zM110 5h1v1h-1zM112 5h1v1h-1zM109 6h1v1h-1zM111 6h1v1h-1zM115 0h1v1h-1zM116 0h1v1h-1zM117 0h1v1h-1zM114 1h1v1h-1zM118 1h1v1h-1zM114 2h1v1h-1zM118 2h1v1h-1zM114 3h1v1h-1zM115 3h1v1h-1zM116 3h1v1h-1zM117 3h1v1h-1zM118 3h1v1h-1zM114 4h1v1h-1zM118 4h1v1h-1zM114 5h1v1h-1zM118 5h1v1h-1zM114 6h1v1h-1zM118 6h1v1h-1zM120 0h1v1h-1zM124 0h1v1h-1zM120 1h1v1h-1zM124 1h1v1h-1zM121 2h1v1h-1zM123 2h1v1h-1zM122 3h1v1h-1zM122 4h1v1h-1zM122 5h1v1h-1zM122 6h1v1h-1zM132 0h1v1h-1zM133 0h1v1h-1zM134 0h1v1h-1zM135 0h1v1h-1zM136 0h1v1h-1zM134 1h1v1h-1zM134 2h1v1h-1zM134 3h1v1h-1zM134 4h1v1h-1zM134 5h1v1h-1zM134 6h1v1h-1zM139 0h1v1h-1zM140 0h1v1h-1zM141 0h1v1h-1zM138 1h1v1h-1zM142 1h1v1h-1zM138 2h1v1h-1zM142 2h1v1h-1zM138 3h1v1h-1zM142 3h1v1h-1zM138 4h1v1h-1zM142 4h1v1h-1zM138 5h1v1h-1zM142 5h1v1h-1zM139 6h1v1h-1zM140 6h1v1h-1zM141 6h1v1h-1zM150 0h1v1h-1zM154 0h1v1h-1zM150 1h1v1h-1zM151 1h1v1h-1zM153 1h1v1h-1zM154 1h1v1h-1zM150 2h1v1h-1zM152 2h1v1h-1zM154 2h1v1h-1zM150 3h1v1h-1zM152 3h1v1h-1zM154 3h1v1h-1zM150 4h1v1h-1zM154 4h1v1h-1zM150 5h1v1h-1zM154 5h1v1h-1zM150 6h1v1h-1zM154 6h1v1h-1zM157 0h1v1h-1zM158 0h1v1h-1zM159 0h1v1h-1zM156 1h1v1h-1zM160 1h1v1h-1zM156 2h1v1h-1zM160 2h1v1h-1zM156 3h1v1h-1zM157 3h1v1h-1zM158 3h1v1h-1zM159 3h1v1h-1zM160 3h1v1h-1zM156 4h1v1h-1zM160 4h1v1h-1zM156 5h1v1h-1zM160 5h1v1h-1zM156 6h1v1h-1zM160 6h1v1h-1zM162 0h1v1h-1zM166 0h1v1h-1zM162 1h1v1h-1zM165 1h1v1h-1zM162 2h1v1h-1zM164 2h1v1h-1zM162 3h1v1h-1zM163 3h1v1h-1zM162 4h1v1h-1zM164 4h1v1h-1zM162 5h1v1h-1zM165 5h1v1h-1zM162 6h1v1h-1zM166 6h1v1h-1zM168 0h1v1h-1zM169 0h1v1h-1zM170 0h1v1h-1zM171 0h1v1h-1zM172 0h1v1h-1zM168 1h1v1h-1zM168 2h1v1h-1zM168 3h1v1h-1zM169 3h1v1h-1zM170 3h1v1h-1zM171 3h1v1h-1zM168 4h1v1h-1zM168 5h1v1h-1zM168 6h1v1h-1zM169 6h1v1h-1zM170 6h1v1h-1zM171 6h1v1h-1zM172 6h1v1h-1zM181 0h1v1h-1zM182 0h1v1h-1zM183 0h1v1h-1zM180 1h1v1h-1zM184 1h1v1h-1zM180 2h1v1h-1zM184 2h1v1h-1zM180 3h1v1h-1zM181 3h1v1h-1zM182 3h1v1h-1zM183 3h1v1h-1zM184 3h1v1h-1zM180 4h1v1h-1zM184 4h1v1h-1zM180 5h1v1h-1zM184 5h1v1h-1zM180 6h1v1h-1zM184 6h1v1h-1zM192 0h1v1h-1zM193 0h1v1h-1zM194 0h1v1h-1zM195 0h1v1h-1zM192 1h1v1h-1zM196 1h1v1h-1zM192 2h1v1h-1zM196 2h1v1h-1zM192 3h1v1h-1zM193 3h1v1h-1zM194 3h1v1h-1zM195 3h1v1h-1zM192 4h1v1h-1zM194 4h1v1h-1zM192 5h1v1h-1zM195 5h1v1h-1zM192 6h1v1h-1zM196 6h1v1h-1zM198 0h1v1h-1zM199 0h1v1h-1zM200 0h1v1h-1zM201 0h1v1h-1zM202 0h1v1h-1zM198 1h1v1h-1zM198 2h1v1h-1zM198 3h1v1h-1zM199 3h1v1h-1zM200 3h1v1h-1zM201 3h1v1h-1zM198 4h1v1h-1zM198 5h1v1h-1zM198 6h1v1h-1zM199 6h1v1h-1zM200 6h1v1h-1zM201 6h1v1h-1zM202 6h1v1h-1zM204 0h1v1h-1zM205 0h1v1h-1zM206 0h1v1h-1zM207 0h1v1h-1zM204 1h1v1h-1zM208 1h1v1h-1zM204 2h1v1h-1zM208 2h1v1h-1zM204 3h1v1h-1zM205 3h1v1h-1zM206 3h1v1h-1zM207 3h1v1h-1zM204 4h1v1h-1zM204 5h1v1h-1zM204 6h1v1h-1zM211 0h1v1h-1zM212 0h1v1h-1zM213 0h1v1h-1zM210 1h1v1h-1zM214 1h1v1h-1zM210 2h1v1h-1zM214 2h1v1h-1zM210 3h1v1h-1zM214 3h1v1h-1zM210 4h1v1h-1zM214 4h1v1h-1zM210 5h1v1h-1zM214 5h1v1h-1zM211 6h1v1h-1zM212 6h1v1h-1zM213 6h1v1h-1zM217 0h1v1h-1zM218 0h1v1h-1zM219 0h1v1h-1zM220 0h1v1h-1zM216 1h1v1h-1zM216 2h1v1h-1zM217 3h1v1h-1zM218 3h1v1h-1zM219 3h1v1h-1zM220 4h1v1h-1zM220 5h1v1h-1zM216 6h1v1h-1zM217 6h1v1h-1zM218 6h1v1h-1zM219 6h1v1h-1zM222 0h1v1h-1zM223 0h1v1h-1zM224 0h1v1h-1zM225 0h1v1h-1zM226 0h1v1h-1zM224 1h1v1h-1zM224 2h1v1h-1zM224 3h1v1h-1zM224 4h1v1h-1zM224 5h1v1h-1zM222 6h1v1h-1zM223 6h1v1h-1zM224 6h1v1h-1zM225 6h1v1h-1zM226 6h1v1h-1zM228 0h1v1h-1zM229 0h1v1h-1zM230 0h1v1h-1zM231 0h1v1h-1zM232 0h1v1h-1zM230 1h1v1h-1zM230 2h1v1h-1zM230 3h1v1h-1zM230 4h1v1h-1zM230 5h1v1h-1zM230 6h1v1h-1zM235 0h1v1h-1zM236 0h1v1h-1zM237 0h1v1h-1zM234 1h1v1h-1zM238 1h1v1h-1zM234 2h1v1h-1zM238 2h1v1h-1zM234 3h1v1h-1zM238 3h1v1h-1zM234 4h1v1h-1zM238 4h1v1h-1zM234 5h1v1h-1zM238 5h1v1h-1zM235 6h1v1h-1zM236 6h1v1h-1zM237 6h1v1h-1zM240 0h1v1h-1zM241 0h1v1h-1zM242 0h1v1h-1zM243 0h1v1h-1zM240 1h1v1h-1zM244 1h1v1h-1zM240 2h1v1h-1zM244 2h1v1h-1zM240 3h1v1h-1zM241 3h1v1h-1zM242 3h1v1h-1zM243 3h1v1h-1zM240 4h1v1h-1zM242 4h1v1h-1zM240 5h1v1h-1zM243 5h1v1h-1zM240 6h1v1h-1zM244 6h1v1h-1zM246 0h1v1h-1zM250 0h1v1h-1zM246 1h1v1h-1zM250 1h1v1h-1zM247 2h1v1h-1zM249 2h1v1h-1zM248 3h1v1h-1zM248 4h1v1h-1zM248 5h1v1h-1zM248 6h1v1h-1zM258 0h1v1h-1zM259 0h1v1h-1zM260 0h1v1h-1zM261 0h1v1h-1zM262 0h1v1h-1zM258 1h1v1h-1zM258 2h1v1h-1zM258 3h1v1h-1zM259 3h1v1h-1zM260 3h1v1h-1zM261 3h1v1h-1zM258 4h1v1h-1zM258 5h1v1h-1zM258 6h1v1h-1zM264 0h1v1h-1zM265 0h1v1h-1zM266 0h1v1h-1zM267 0h1v1h-1zM268 0h1v1h-1zM264 1h1v1h-1zM264 2h1v1h-1zM264 3h1v1h-1zM265 3h1v1h-1zM266 3h1v1h-1zM267 3h1v1h-1zM264 4h1v1h-1zM264 5h1v1h-1zM264 6h1v1h-1zM265 6h1v1h-1zM266 6h1v1h-1zM267 6h1v1h-1zM268 6h1v1h-1zM270 0h1v1h-1zM271 0h1v1h-1zM272 0h1v1h-1zM273 0h1v1h-1zM274 0h1v1h-1zM270 1h1v1h-1zM270 2h1v1h-1zM270 3h1v1h-1zM271 3h1v1h-1zM272 3h1v1h-1zM273 3h1v1h-1zM270 4h1v1h-1zM270 5h1v1h-1zM270 6h1v1h-1zM271 6h1v1h-1zM272 6h1v1h-1zM273 6h1v1h-1zM274 6h1v1h-1zM276 0h1v1h-1zM276 1h1v1h-1zM276 2h1v1h-1zM276 3h1v1h-1zM276 4h1v1h-1zM276 5h1v1h-1zM276 6h1v1h-1zM277 6h1v1h-1zM278 6h1v1h-1zM279 6h1v1h-1zM280 6h1v1h-1zM288 0h1v1h-1zM288 1h1v1h-1zM288 2h1v1h-1zM288 3h1v1h-1zM288 4h1v1h-1zM288 5h1v1h-1zM288 6h1v1h-1zM289 6h1v1h-1zM290 6h1v1h-1zM291 6h1v1h-1zM292 6h1v1h-1zM294 0h1v1h-1zM295 0h1v1h-1zM296 0h1v1h-1zM297 0h1v1h-1zM298 0h1v1h-1zM296 1h1v1h-1zM296 2h1v1h-1zM296 3h1v1h-1zM296 4h1v1h-1zM296 5h1v1h-1zM294 6h1v1h-1zM295 6h1v1h-1zM296 6h1v1h-1zM297 6h1v1h-1zM298 6h1v1h-1zM300 0h1v1h-1zM304 0h1v1h-1zM300 1h1v1h-1zM303 1h1v1h-1zM300 2h1v1h-1zM302 2h1v1h-1zM300 3h1v1h-1zM301 3h1v1h-1zM300 4h1v1h-1zM302 4h1v1h-1zM300 5h1v1h-1zM303 5h1v1h-1zM300 6h1v1h-1zM304 6h1v1h-1zM306 0h1v1h-1zM307 0h1v1h-1zM308 0h1v1h-1zM309 0h1v1h-1zM310 0h1v1h-1zM306 1h1v1h-1zM306 2h1v1h-1zM306 3h1v1h-1zM307 3h1v1h-1zM308 3h1v1h-1zM309 3h1v1h-1zM306 4h1v1h-1zM306 5h1v1h-1zM306 6h1v1h-1zM307 6h1v1h-1zM308 6h1v1h-1zM309 6h1v1h-1zM310 6h1v1h-1zM318 0h1v1h-1zM322 0h1v1h-1zM318 1h1v1h-1zM322 1h1v1h-1zM319 2h1v1h-1zM321 2h1v1h-1zM320 3h1v1h-1zM320 4h1v1h-1zM320 5h1v1h-1zM320 6h1v1h-1zM325 0h1v1h-1zM326 0h1v1h-1zM327 0h1v1h-1zM324 1h1v1h-1zM328 1h1v1h-1zM324 2h1v1h-1zM328 2h1v1h-1zM324 3h1v1h-1zM328 3h1v1h-1zM324 4h1v1h-1zM328 4h1v1h-1zM324 5h1v1h-1zM328 5h1v1h-1zM325 6h1v1h-1zM326 6h1v1h-1zM327 6h1v1h-1zM330 0h1v1h-1zM334 0h1v1h-1zM330 1h1v1h-1zM334 1h1v1h-1zM330 2h1v1h-1zM334 2h1v1h-1zM330 3h1v1h-1zM334 3h1v1h-1zM330 4h1v1h-1zM334 4h1v1h-1zM330 5h1v1h-1zM334 5h1v1h-1zM331 6h1v1h-1zM332 6h1v1h-1zM333 6h1v1h-1zM336 0h1v1h-1zM337 0h1v1h-1zM338 0h1v1h-1zM339 0h1v1h-1zM336 1h1v1h-1zM340 1h1v1h-1zM336 2h1v1h-1zM340 2h1v1h-1zM336 3h1v1h-1zM337 3h1v1h-1zM338 3h1v1h-1zM339 3h1v1h-1zM336 4h1v1h-1zM338 4h1v1h-1zM336 5h1v1h-1zM339 5h1v1h-1zM336 6h1v1h-1zM340 6h1v1h-1zM343 0h1v1h-1zM344 0h1v1h-1zM345 0h1v1h-1zM346 0h1v1h-1zM342 1h1v1h-1zM342 2h1v1h-1zM343 3h1v1h-1zM344 3h1v1h-1zM345 3h1v1h-1zM346 4h1v1h-1zM346 5h1v1h-1zM342 6h1v1h-1zM343 6h1v1h-1zM344 6h1v1h-1zM345 6h1v1h-1zM349 5h1v1h-1zM350 5h1v1h-1zM349 6h1v1h-1zM350 6h1v1h-1z" fill="#77d598"/></g><g transform="translate(51 286) scale(1.8)" ><path d="M0 0h1v1h-1zM1 0h1v1h-1zM2 0h1v1h-1zM3 0h1v1h-1zM4 0h1v1h-1zM2 1h1v1h-1zM2 2h1v1h-1zM2 3h1v1h-1zM2 4h1v1h-1zM2 5h1v1h-1zM2 6h1v1h-1zM7 0h1v1h-1zM8 0h1v1h-1zM9 0h1v1h-1zM6 1h1v1h-1zM10 1h1v1h-1zM6 2h1v1h-1zM10 2h1v1h-1zM6 3h1v1h-1zM7 3h1v1h-1zM8 3h1v1h-1zM9 3h1v1h-1zM10 3h1v1h-1zM6 4h1v1h-1zM10 4h1v1h-1zM6 5h1v1h-1zM10 5h1v1h-1zM6 6h1v1h-1zM10 6h1v1h-1zM12 0h1v1h-1zM16 0h1v1h-1zM12 1h1v1h-1zM15 1h1v1h-1zM12 2h1v1h-1zM14 2h1v1h-1zM12 3h1v1h-1zM13 3h1v1h-1zM12 4h1v1h-1zM14 4h1v1h-1zM12 5h1v1h-1zM15 5h1v1h-1zM12 6h1v1h-1zM16 6h1v1h-1zM18 0h1v1h-1zM19 0h1v1h-1zM20 0h1v1h-1zM21 0h1v1h-1zM22 0h1v1h-1zM18 1h1v1h-1zM18 2h1v1h-1zM18 3h1v1h-1zM19 3h1v1h-1zM20 3h1v1h-1zM21 3h1v1h-1zM18 4h1v1h-1zM18 5h1v1h-1zM18 6h1v1h-1zM19 6h1v1h-1zM20 6h1v1h-1zM21 6h1v1h-1zM22 6h1v1h-1zM32 0h1v1h-1zM31 1h1v1h-1zM32 1h1v1h-1zM32 2h1v1h-1zM32 3h1v1h-1zM32 4h1v1h-1zM32 5h1v1h-1zM31 6h1v1h-1zM32 6h1v1h-1zM33 6h1v1h-1zM36 0h1v1h-1zM37 0h1v1h-1zM38 0h1v1h-1zM39 0h1v1h-1zM40 0h1v1h-1zM36 1h1v1h-1zM36 2h1v1h-1zM36 3h1v1h-1zM37 3h1v1h-1zM38 3h1v1h-1zM39 3h1v1h-1zM40 4h1v1h-1zM40 5h1v1h-1zM36 6h1v1h-1zM37 6h1v1h-1zM38 6h1v1h-1zM39 6h1v1h-1zM43 0h1v1h-1zM44 0h1v1h-1zM45 0h1v1h-1zM42 1h1v1h-1zM46 1h1v1h-1zM46 2h1v1h-1zM45 3h1v1h-1zM44 4h1v1h-1zM43 5h1v1h-1zM42 6h1v1h-1zM43 6h1v1h-1zM44 6h1v1h-1zM45 6h1v1h-1zM46 6h1v1h-1zM55 0h1v1h-1zM56 0h1v1h-1zM57 0h1v1h-1zM58 0h1v1h-1zM54 1h1v1h-1zM54 2h1v1h-1zM55 3h1v1h-1zM56 3h1v1h-1zM57 3h1v1h-1zM58 4h1v1h-1zM58 5h1v1h-1zM54 6h1v1h-1zM55 6h1v1h-1zM56 6h1v1h-1zM57 6h1v1h-1zM60 0h1v1h-1zM61 0h1v1h-1zM62 0h1v1h-1zM63 0h1v1h-1zM64 0h1v1h-1zM62 1h1v1h-1zM62 2h1v1h-1zM62 3h1v1h-1zM62 4h1v1h-1zM62 5h1v1h-1zM62 6h1v1h-1zM66 0h1v1h-1zM70 0h1v1h-1zM66 1h1v1h-1zM70 1h1v1h-1zM67 2h1v1h-1zM69 2h1v1h-1zM68 3h1v1h-1zM68 4h1v1h-1zM68 5h1v1h-1zM68 6h1v1h-1zM72 0h1v1h-1zM72 1h1v1h-1zM72 2h1v1h-1zM72 3h1v1h-1zM72 4h1v1h-1zM72 5h1v1h-1zM72 6h1v1h-1zM73 6h1v1h-1zM74 6h1v1h-1zM75 6h1v1h-1zM76 6h1v1h-1zM78 0h1v1h-1zM79 0h1v1h-1zM80 0h1v1h-1zM81 0h1v1h-1zM82 0h1v1h-1zM78 1h1v1h-1zM78 2h1v1h-1zM78 3h1v1h-1zM79 3h1v1h-1zM80 3h1v1h-1zM81 3h1v1h-1zM78 4h1v1h-1zM78 5h1v1h-1zM78 6h1v1h-1zM79 6h1v1h-1zM80 6h1v1h-1zM81 6h1v1h-1zM82 6h1v1h-1zM85 0h1v1h-1zM86 0h1v1h-1zM87 0h1v1h-1zM88 0h1v1h-1zM84 1h1v1h-1zM84 2h1v1h-1zM85 3h1v1h-1zM86 3h1v1h-1zM87 3h1v1h-1zM88 4h1v1h-1zM88 5h1v1h-1zM84 6h1v1h-1zM85 6h1v1h-1zM86 6h1v1h-1zM87 6h1v1h-1zM97 0h1v1h-1zM98 0h1v1h-1zM99 0h1v1h-1zM96 1h1v1h-1zM100 1h1v1h-1zM96 2h1v1h-1zM100 2h1v1h-1zM96 3h1v1h-1zM97 3h1v1h-1zM98 3h1v1h-1zM99 3h1v1h-1zM100 3h1v1h-1zM96 4h1v1h-1zM100 4h1v1h-1zM96 5h1v1h-1zM100 5h1v1h-1zM96 6h1v1h-1zM100 6h1v1h-1zM102 0h1v1h-1zM106 0h1v1h-1zM102 1h1v1h-1zM103 1h1v1h-1zM106 1h1v1h-1zM102 2h1v1h-1zM103 2h1v1h-1zM106 2h1v1h-1zM102 3h1v1h-1zM104 3h1v1h-1zM106 3h1v1h-1zM102 4h1v1h-1zM105 4h1v1h-1zM106 4h1v1h-1zM102 5h1v1h-1zM105 5h1v1h-1zM106 5h1v1h-1zM102 6h1v1h-1zM106 6h1v1h-1zM108 0h1v1h-1zM109 0h1v1h-1zM110 0h1v1h-1zM111 0h1v1h-1zM108 1h1v1h-1zM112 1h1v1h-1zM108 2h1v1h-1zM112 2h1v1h-1zM108 3h1v1h-1zM112 3h1v1h-1zM108 4h1v1h-1zM112 4h1v1h-1zM108 5h1v1h-1zM112 5h1v1h-1zM108 6h1v1h-1zM109 6h1v1h-1zM110 6h1v1h-1zM111 6h1v1h-1zM121 0h1v1h-1zM122 0h1v1h-1zM123 0h1v1h-1zM120 1h1v1h-1zM124 1h1v1h-1zM120 2h1v1h-1zM124 2h1v1h-1zM120 3h1v1h-1zM121 3h1v1h-1zM122 3h1v1h-1zM123 3h1v1h-1zM124 3h1v1h-1zM120 4h1v1h-1zM124 4h1v1h-1zM120 5h1v1h-1zM124 5h1v1h-1zM120 6h1v1h-1zM124 6h1v1h-1zM132 0h1v1h-1zM132 1h1v1h-1zM132 2h1v1h-1zM132 3h1v1h-1zM132 4h1v1h-1zM132 5h1v1h-1zM132 6h1v1h-1zM133 6h1v1h-1zM134 6h1v1h-1zM135 6h1v1h-1zM136 6h1v1h-1zM138 0h1v1h-1zM139 0h1v1h-1zM140 0h1v1h-1zM141 0h1v1h-1zM142 0h1v1h-1zM140 1h1v1h-1zM140 2h1v1h-1zM140 3h1v1h-1zM140 4h1v1h-1zM140 5h1v1h-1zM138 6h1v1h-1zM139 6h1v1h-1zM140 6h1v1h-1zM141 6h1v1h-1zM142 6h1v1h-1zM145 0h1v1h-1zM146 0h1v1h-1zM147 0h1v1h-1zM148 0h1v1h-1zM144 1h1v1h-1zM144 2h1v1h-1zM144 3h1v1h-1zM144 4h1v1h-1zM144 5h1v1h-1zM145 6h1v1h-1zM146 6h1v1h-1zM147 6h1v1h-1zM148 6h1v1h-1zM150 0h1v1h-1zM151 0h1v1h-1zM152 0h1v1h-1zM153 0h1v1h-1zM154 0h1v1h-1zM150 1h1v1h-1zM150 2h1v1h-1zM150 3h1v1h-1zM151 3h1v1h-1zM152 3h1v1h-1zM153 3h1v1h-1zM150 4h1v1h-1zM150 5h1v1h-1zM150 6h1v1h-1zM151 6h1v1h-1zM152 6h1v1h-1zM153 6h1v1h-1zM154 6h1v1h-1zM156 0h1v1h-1zM160 0h1v1h-1zM156 1h1v1h-1zM157 1h1v1h-1zM160 1h1v1h-1zM156 2h1v1h-1zM157 2h1v1h-1zM160 2h1v1h-1zM156 3h1v1h-1zM158 3h1v1h-1zM160 3h1v1h-1zM156 4h1v1h-1zM159 4h1v1h-1zM160 4h1v1h-1zM156 5h1v1h-1zM159 5h1v1h-1zM160 5h1v1h-1zM156 6h1v1h-1zM160 6h1v1h-1zM163 0h1v1h-1zM164 0h1v1h-1zM165 0h1v1h-1zM166 0h1v1h-1zM162 1h1v1h-1zM162 2h1v1h-1zM162 3h1v1h-1zM162 4h1v1h-1zM162 5h1v1h-1zM163 6h1v1h-1zM164 6h1v1h-1zM165 6h1v1h-1zM166 6h1v1h-1zM168 0h1v1h-1zM169 0h1v1h-1zM170 0h1v1h-1zM171 0h1v1h-1zM172 0h1v1h-1zM168 1h1v1h-1zM168 2h1v1h-1zM168 3h1v1h-1zM169 3h1v1h-1zM170 3h1v1h-1zM171 3h1v1h-1zM168 4h1v1h-1zM168 5h1v1h-1zM168 6h1v1h-1zM169 6h1v1h-1zM170 6h1v1h-1zM171 6h1v1h-1zM172 6h1v1h-1zM180 0h1v1h-1zM181 0h1v1h-1zM182 0h1v1h-1zM183 0h1v1h-1zM184 0h1v1h-1zM182 1h1v1h-1zM182 2h1v1h-1zM182 3h1v1h-1zM182 4h1v1h-1zM182 5h1v1h-1zM182 6h1v1h-1zM187 0h1v1h-1zM188 0h1v1h-1zM189 0h1v1h-1zM186 1h1v1h-1zM190 1h1v1h-1zM186 2h1v1h-1zM190 2h1v1h-1zM186 3h1v1h-1zM190 3h1v1h-1zM186 4h1v1h-1zM190 4h1v1h-1zM186 5h1v1h-1zM190 5h1v1h-1zM187 6h1v1h-1zM188 6h1v1h-1zM189 6h1v1h-1zM198 0h1v1h-1zM199 0h1v1h-1zM200 0h1v1h-1zM201 0h1v1h-1zM198 1h1v1h-1zM202 1h1v1h-1zM198 2h1v1h-1zM202 2h1v1h-1zM198 3h1v1h-1zM199 3h1v1h-1zM200 3h1v1h-1zM201 3h1v1h-1zM198 4h1v1h-1zM202 4h1v1h-1zM198 5h1v1h-1zM202 5h1v1h-1zM198 6h1v1h-1zM199 6h1v1h-1zM200 6h1v1h-1zM201 6h1v1h-1zM204 0h1v1h-1zM205 0h1v1h-1zM206 0h1v1h-1zM207 0h1v1h-1zM204 1h1v1h-1zM208 1h1v1h-1zM204 2h1v1h-1zM208 2h1v1h-1zM204 3h1v1h-1zM205 3h1v1h-1zM206 3h1v1h-1zM207 3h1v1h-1zM204 4h1v1h-1zM206 4h1v1h-1zM204 5h1v1h-1zM207 5h1v1h-1zM204 6h1v1h-1zM208 6h1v1h-1zM210 0h1v1h-1zM211 0h1v1h-1zM212 0h1v1h-1zM213 0h1v1h-1zM214 0h1v1h-1zM212 1h1v1h-1zM212 2h1v1h-1zM212 3h1v1h-1zM212 4h1v1h-1zM212 5h1v1h-1zM210 6h1v1h-1zM211 6h1v1h-1zM212 6h1v1h-1zM213 6h1v1h-1zM214 6h1v1h-1zM216 0h1v1h-1zM220 0h1v1h-1zM216 1h1v1h-1zM217 1h1v1h-1zM220 1h1v1h-1zM216 2h1v1h-1zM217 2h1v1h-1zM220 2h1v1h-1zM216 3h1v1h-1zM218 3h1v1h-1zM220 3h1v1h-1zM216 4h1v1h-1zM219 4h1v1h-1zM220 4h1v1h-1zM216 5h1v1h-1zM219 5h1v1h-1zM220 5h1v1h-1zM216 6h1v1h-1zM220 6h1v1h-1zM223 0h1v1h-1zM224 0h1v1h-1zM225 0h1v1h-1zM226 0h1v1h-1zM222 1h1v1h-1zM222 2h1v1h-1zM222 3h1v1h-1zM224 3h1v1h-1zM225 3h1v1h-1zM226 3h1v1h-1zM222 4h1v1h-1zM226 4h1v1h-1zM222 5h1v1h-1zM226 5h1v1h-1zM223 6h1v1h-1zM224 6h1v1h-1zM225 6h1v1h-1zM226 6h1v1h-1zM234 0h1v1h-1zM235 0h1v1h-1zM236 0h1v1h-1zM237 0h1v1h-1zM238 0h1v1h-1zM236 1h1v1h-1zM236 2h1v1h-1zM236 3h1v1h-1zM236 4h1v1h-1zM236 5h1v1h-1zM236 6h1v1h-1zM240 0h1v1h-1zM244 0h1v1h-1zM240 1h1v1h-1zM244 1h1v1h-1zM240 2h1v1h-1zM244 2h1v1h-1zM240 3h1v1h-1zM241 3h1v1h-1zM242 3h1v1h-1zM243 3h1v1h-1zM244 3h1v1h-1zM240 4h1v1h-1zM244 4h1v1h-1zM240 5h1v1h-1zM244 5h1v1h-1zM240 6h1v1h-1zM244 6h1v1h-1zM246 0h1v1h-1zM247 0h1v1h-1zM248 0h1v1h-1zM249 0h1v1h-1zM250 0h1v1h-1zM246 1h1v1h-1zM246 2h1v1h-1zM246 3h1v1h-1zM247 3h1v1h-1zM248 3h1v1h-1zM249 3h1v1h-1zM246 4h1v1h-1zM246 5h1v1h-1zM246 6h1v1h-1zM247 6h1v1h-1zM248 6h1v1h-1zM249 6h1v1h-1zM250 6h1v1h-1zM252 0h1v1h-1zM256 0h1v1h-1zM252 1h1v1h-1zM253 1h1v1h-1zM255 1h1v1h-1zM256 1h1v1h-1zM252 2h1v1h-1zM254 2h1v1h-1zM256 2h1v1h-1zM252 3h1v1h-1zM254 3h1v1h-1zM256 3h1v1h-1zM252 4h1v1h-1zM256 4h1v1h-1zM252 5h1v1h-1zM256 5h1v1h-1zM252 6h1v1h-1zM256 6h1v1h-1zM264 0h1v1h-1zM268 0h1v1h-1zM264 1h1v1h-1zM268 1h1v1h-1zM264 2h1v1h-1zM268 2h1v1h-1zM264 3h1v1h-1zM265 3h1v1h-1zM266 3h1v1h-1zM267 3h1v1h-1zM268 3h1v1h-1zM264 4h1v1h-1zM268 4h1v1h-1zM264 5h1v1h-1zM268 5h1v1h-1zM264 6h1v1h-1zM268 6h1v1h-1zM271 0h1v1h-1zM272 0h1v1h-1zM273 0h1v1h-1zM270 1h1v1h-1zM274 1h1v1h-1zM270 2h1v1h-1zM274 2h1v1h-1zM270 3h1v1h-1zM274 3h1v1h-1zM270 4h1v1h-1zM274 4h1v1h-1zM270 5h1v1h-1zM274 5h1v1h-1zM271 6h1v1h-1zM272 6h1v1h-1zM273 6h1v1h-1zM276 0h1v1h-1zM280 0h1v1h-1zM276 1h1v1h-1zM277 1h1v1h-1zM279 1h1v1h-1zM280 1h1v1h-1zM276 2h1v1h-1zM278 2h1v1h-1zM280 2h1v1h-1zM276 3h1v1h-1zM278 3h1v1h-1zM280 3h1v1h-1zM276 4h1v1h-1zM280 4h1v1h-1zM276 5h1v1h-1zM280 5h1v1h-1zM276 6h1v1h-1zM280 6h1v1h-1zM282 0h1v1h-1zM283 0h1v1h-1zM284 0h1v1h-1zM285 0h1v1h-1zM286 0h1v1h-1zM282 1h1v1h-1zM282 2h1v1h-1zM282 3h1v1h-1zM283 3h1v1h-1zM284 3h1v1h-1zM285 3h1v1h-1zM282 4h1v1h-1zM282 5h1v1h-1zM282 6h1v1h-1zM283 6h1v1h-1zM284 6h1v1h-1zM285 6h1v1h-1zM286 6h1v1h-1zM289 5h1v1h-1zM290 5h1v1h-1zM289 6h1v1h-1zM290 6h1v1h-1zM295 5h1v1h-1zM296 5h1v1h-1zM295 6h1v1h-1zM296 6h1v1h-1zM301 5h1v1h-1zM302 5h1v1h-1zM301 6h1v1h-1zM302 6h1v1h-1z" fill="#77d598"/></g><g transform="translate(51 323) scale(1.8)" ><path d="M1 0h1v1h-1zM2 0h1v1h-1zM3 0h1v1h-1zM4 0h1v1h-1zM0 1h1v1h-1zM0 2h1v1h-1zM0 3h1v1h-1zM0 4h1v1h-1zM0 5h1v1h-1zM1 6h1v1h-1zM2 6h1v1h-1zM3 6h1v1h-1zM4 6h1v1h-1zM7 0h1v1h-1zM8 0h1v1h-1zM9 0h1v1h-1zM6 1h1v1h-1zM10 1h1v1h-1zM6 2h1v1h-1zM10 2h1v1h-1zM6 3h1v1h-1zM7 3h1v1h-1zM8 3h1v1h-1zM9 3h1v1h-1zM10 3h1v1h-1zM6 4h1v1h-1zM10 4h1v1h-1zM6 5h1v1h-1zM10 5h1v1h-1zM6 6h1v1h-1zM10 6h1v1h-1zM12 0h1v1h-1zM13 0h1v1h-1zM14 0h1v1h-1zM15 0h1v1h-1zM12 1h1v1h-1zM16 1h1v1h-1zM12 2h1v1h-1zM16 2h1v1h-1zM12 3h1v1h-1zM13 3h1v1h-1zM14 3h1v1h-1zM15 3h1v1h-1zM12 4h1v1h-1zM14 4h1v1h-1zM12 5h1v1h-1zM15 5h1v1h-1zM12 6h1v1h-1zM16 6h1v1h-1zM19 0h1v1h-1zM20 0h1v1h-1zM21 0h1v1h-1zM22 0h1v1h-1zM18 1h1v1h-1zM18 2h1v1h-1zM18 3h1v1h-1zM20 3h1v1h-1zM21 3h1v1h-1zM22 3h1v1h-1zM18 4h1v1h-1zM22 4h1v1h-1zM18 5h1v1h-1zM22 5h1v1h-1zM19 6h1v1h-1zM20 6h1v1h-1zM21 6h1v1h-1zM22 6h1v1h-1zM25 0h1v1h-1zM26 0h1v1h-1zM27 0h1v1h-1zM24 1h1v1h-1zM28 1h1v1h-1zM24 2h1v1h-1zM28 2h1v1h-1zM24 3h1v1h-1zM28 3h1v1h-1zM24 4h1v1h-1zM28 4h1v1h-1zM24 5h1v1h-1zM28 5h1v1h-1zM25 6h1v1h-1zM26 6h1v1h-1zM27 6h1v1h-1zM31 1h1v1h-1zM32 1h1v1h-1zM31 2h1v1h-1zM32 2h1v1h-1zM31 4h1v1h-1zM32 4h1v1h-1zM31 5h1v1h-1zM32 5h1v1h-1zM42 0h1v1h-1zM43 0h1v1h-1zM44 0h1v1h-1zM45 0h1v1h-1zM46 0h1v1h-1zM44 1h1v1h-1zM44 2h1v1h-1zM44 3h1v1h-1zM44 4h1v1h-1zM44 5h1v1h-1zM44 6h1v1h-1zM48 0h1v1h-1zM49 0h1v1h-1zM50 0h1v1h-1zM51 0h1v1h-1zM52 0h1v1h-1zM48 1h1v1h-1zM48 2h1v1h-1zM48 3h1v1h-1zM49 3h1v1h-1zM50 3h1v1h-1zM51 3h1v1h-1zM48 4h1v1h-1zM48 5h1v1h-1zM48 6h1v1h-1zM49 6h1v1h-1zM50 6h1v1h-1zM51 6h1v1h-1zM52 6h1v1h-1zM54 0h1v1h-1zM58 0h1v1h-1zM54 1h1v1h-1zM58 1h1v1h-1zM55 2h1v1h-1zM57 2h1v1h-1zM56 3h1v1h-1zM55 4h1v1h-1zM57 4h1v1h-1zM54 5h1v1h-1zM58 5h1v1h-1zM54 6h1v1h-1zM58 6h1v1h-1zM60 0h1v1h-1zM61 0h1v1h-1zM62 0h1v1h-1zM63 0h1v1h-1zM64 0h1v1h-1zM62 1h1v1h-1zM62 2h1v1h-1zM62 3h1v1h-1zM62 4h1v1h-1zM62 5h1v1h-1zM62 6h1v1h-1zM74 1h1v1h-1zM74 2h1v1h-1zM72 3h1v1h-1zM73 3h1v1h-1zM74 3h1v1h-1zM75 3h1v1h-1zM76 3h1v1h-1zM74 4h1v1h-1zM74 5h1v1h-1zM85 0h1v1h-1zM86 0h1v1h-1zM87 0h1v1h-1zM88 0h1v1h-1zM84 1h1v1h-1zM84 2h1v1h-1zM85 3h1v1h-1zM86 3h1v1h-1zM87 3h1v1h-1zM88 4h1v1h-1zM88 5h1v1h-1zM84 6h1v1h-1zM85 6h1v1h-1zM86 6h1v1h-1zM87 6h1v1h-1zM90 0h1v1h-1zM94 0h1v1h-1zM90 1h1v1h-1zM94 1h1v1h-1zM90 2h1v1h-1zM94 2h1v1h-1zM90 3h1v1h-1zM94 3h1v1h-1zM90 4h1v1h-1zM94 4h1v1h-1zM91 5h1v1h-1zM93 5h1v1h-1zM92 6h1v1h-1zM97 0h1v1h-1zM98 0h1v1h-1zM99 0h1v1h-1zM100 0h1v1h-1zM96 1h1v1h-1zM96 2h1v1h-1zM96 3h1v1h-1zM98 3h1v1h-1zM99 3h1v1h-1zM100 3h1v1h-1zM96 4h1v1h-1zM100 4h1v1h-1zM96 5h1v1h-1zM100 5h1v1h-1zM97 6h1v1h-1zM98 6h1v1h-1zM99 6h1v1h-1zM100 6h1v1h-1zM126 0h1v1h-1zM126 1h1v1h-1zM126 2h1v1h-1zM126 3h1v1h-1zM126 4h1v1h-1zM126 5h1v1h-1zM126 6h1v1h-1zM127 6h1v1h-1zM128 6h1v1h-1zM129 6h1v1h-1zM130 6h1v1h-1zM132 0h1v1h-1zM133 0h1v1h-1zM134 0h1v1h-1zM135 0h1v1h-1zM136 0h1v1h-1zM134 1h1v1h-1zM134 2h1v1h-1zM134 3h1v1h-1zM134 4h1v1h-1zM134 5h1v1h-1zM132 6h1v1h-1zM133 6h1v1h-1zM134 6h1v1h-1zM135 6h1v1h-1zM136 6h1v1h-1zM139 0h1v1h-1zM140 0h1v1h-1zM141 0h1v1h-1zM142 0h1v1h-1zM138 1h1v1h-1zM138 2h1v1h-1zM138 3h1v1h-1zM138 4h1v1h-1zM138 5h1v1h-1zM139 6h1v1h-1zM140 6h1v1h-1zM141 6h1v1h-1zM142 6h1v1h-1zM144 0h1v1h-1zM145 0h1v1h-1zM146 0h1v1h-1zM147 0h1v1h-1zM148 0h1v1h-1zM144 1h1v1h-1zM144 2h1v1h-1zM144 3h1v1h-1zM145 3h1v1h-1zM146 3h1v1h-1zM147 3h1v1h-1zM144 4h1v1h-1zM144 5h1v1h-1zM144 6h1v1h-1zM145 6h1v1h-1zM146 6h1v1h-1zM147 6h1v1h-1zM148 6h1v1h-1zM150 0h1v1h-1zM154 0h1v1h-1zM150 1h1v1h-1zM151 1h1v1h-1zM154 1h1v1h-1zM150 2h1v1h-1zM151 2h1v1h-1zM154 2h1v1h-1zM150 3h1v1h-1zM152 3h1v1h-1zM154 3h1v1h-1zM150 4h1v1h-1zM153 4h1v1h-1zM154 4h1v1h-1zM150 5h1v1h-1zM153 5h1v1h-1zM154 5h1v1h-1zM150 6h1v1h-1zM154 6h1v1h-1zM157 0h1v1h-1zM158 0h1v1h-1zM159 0h1v1h-1zM160 0h1v1h-1zM156 1h1v1h-1zM156 2h1v1h-1zM156 3h1v1h-1zM156 4h1v1h-1zM156 5h1v1h-1zM157 6h1v1h-1zM158 6h1v1h-1zM159 6h1v1h-1zM160 6h1v1h-1zM162 0h1v1h-1zM163 0h1v1h-1zM164 0h1v1h-1zM165 0h1v1h-1zM166 0h1v1h-1zM162 1h1v1h-1zM162 2h1v1h-1zM162 3h1v1h-1zM163 3h1v1h-1zM164 3h1v1h-1zM165 3h1v1h-1zM162 4h1v1h-1zM162 5h1v1h-1zM162 6h1v1h-1zM163 6h1v1h-1zM164 6h1v1h-1zM165 6h1v1h-1zM166 6h1v1h-1zM169 1h1v1h-1zM170 1h1v1h-1zM169 2h1v1h-1zM170 2h1v1h-1zM169 4h1v1h-1zM170 4h1v1h-1zM169 5h1v1h-1zM170 5h1v1h-1zM180 0h1v1h-1zM184 0h1v1h-1zM180 1h1v1h-1zM181 1h1v1h-1zM183 1h1v1h-1zM184 1h1v1h-1zM180 2h1v1h-1zM182 2h1v1h-1zM184 2h1v1h-1zM180 3h1v1h-1zM182 3h1v1h-1zM184 3h1v1h-1zM180 4h1v1h-1zM184 4h1v1h-1zM180 5h1v1h-1zM184 5h1v1h-1zM180 6h1v1h-1zM184 6h1v1h-1zM186 0h1v1h-1zM187 0h1v1h-1zM188 0h1v1h-1zM189 0h1v1h-1zM190 0h1v1h-1zM188 1h1v1h-1zM188 2h1v1h-1zM188 3h1v1h-1zM188 4h1v1h-1zM188 5h1v1h-1zM186 6h1v1h-1zM187 6h1v1h-1zM188 6h1v1h-1zM189 6h1v1h-1zM190 6h1v1h-1zM192 0h1v1h-1zM193 0h1v1h-1zM194 0h1v1h-1zM195 0h1v1h-1zM196 0h1v1h-1zM194 1h1v1h-1zM194 2h1v1h-1zM194 3h1v1h-1zM194 4h1v1h-1zM194 5h1v1h-1zM194 6h1v1h-1z" fill="#deb871"/></g><g transform="translate(39 370) scale(1.9)" ><path d="M1 0h1v1h-1zM2 0h1v1h-1zM3 0h1v1h-1zM1 1h1v1h-1zM1 2h1v1h-1zM1 3h1v1h-1zM1 4h1v1h-1zM1 5h1v1h-1zM1 6h1v1h-1zM2 6h1v1h-1zM3 6h1v1h-1zM7 0h1v1h-1zM8 0h1v1h-1zM9 0h1v1h-1zM10 0h1v1h-1zM6 1h1v1h-1zM6 2h1v1h-1zM6 3h1v1h-1zM6 4h1v1h-1zM6 5h1v1h-1zM7 6h1v1h-1zM8 6h1v1h-1zM9 6h1v1h-1zM10 6h1v1h-1zM13 0h1v1h-1zM14 0h1v1h-1zM15 0h1v1h-1zM15 1h1v1h-1zM15 2h1v1h-1zM15 3h1v1h-1zM15 4h1v1h-1zM15 5h1v1h-1zM13 6h1v1h-1zM14 6h1v1h-1zM15 6h1v1h-1zM25 0h1v1h-1zM26 0h1v1h-1zM27 0h1v1h-1zM28 0h1v1h-1zM24 1h1v1h-1zM24 2h1v1h-1zM24 3h1v1h-1zM24 4h1v1h-1zM24 5h1v1h-1zM25 6h1v1h-1zM26 6h1v1h-1zM27 6h1v1h-1zM28 6h1v1h-1zM31 0h1v1h-1zM32 0h1v1h-1zM33 0h1v1h-1zM30 1h1v1h-1zM34 1h1v1h-1zM30 2h1v1h-1zM34 2h1v1h-1zM30 3h1v1h-1zM31 3h1v1h-1zM32 3h1v1h-1zM33 3h1v1h-1zM34 3h1v1h-1zM30 4h1v1h-1zM34 4h1v1h-1zM30 5h1v1h-1zM34 5h1v1h-1zM30 6h1v1h-1zM34 6h1v1h-1zM36 0h1v1h-1zM37 0h1v1h-1zM38 0h1v1h-1zM39 0h1v1h-1zM40 0h1v1h-1zM38 1h1v1h-1zM38 2h1v1h-1zM38 3h1v1h-1zM38 4h1v1h-1zM38 5h1v1h-1zM38 6h1v1h-1zM43 0h1v1h-1zM44 0h1v1h-1zM45 0h1v1h-1zM42 1h1v1h-1zM46 1h1v1h-1zM42 2h1v1h-1zM46 2h1v1h-1zM42 3h1v1h-1zM43 3h1v1h-1zM44 3h1v1h-1zM45 3h1v1h-1zM46 3h1v1h-1zM42 4h1v1h-1zM46 4h1v1h-1zM42 5h1v1h-1zM46 5h1v1h-1zM42 6h1v1h-1zM46 6h1v1h-1zM48 0h1v1h-1zM48 1h1v1h-1zM48 2h1v1h-1zM48 3h1v1h-1zM48 4h1v1h-1zM48 5h1v1h-1zM48 6h1v1h-1zM49 6h1v1h-1zM50 6h1v1h-1zM51 6h1v1h-1zM52 6h1v1h-1zM55 0h1v1h-1zM56 0h1v1h-1zM57 0h1v1h-1zM54 1h1v1h-1zM58 1h1v1h-1zM54 2h1v1h-1zM58 2h1v1h-1zM54 3h1v1h-1zM58 3h1v1h-1zM54 4h1v1h-1zM58 4h1v1h-1zM54 5h1v1h-1zM58 5h1v1h-1zM55 6h1v1h-1zM56 6h1v1h-1zM57 6h1v1h-1zM61 0h1v1h-1zM62 0h1v1h-1zM63 0h1v1h-1zM64 0h1v1h-1zM60 1h1v1h-1zM60 2h1v1h-1zM60 3h1v1h-1zM62 3h1v1h-1zM63 3h1v1h-1zM64 3h1v1h-1zM60 4h1v1h-1zM64 4h1v1h-1zM60 5h1v1h-1zM64 5h1v1h-1zM61 6h1v1h-1zM62 6h1v1h-1zM63 6h1v1h-1zM64 6h1v1h-1zM66 0h1v1h-1zM70 0h1v1h-1zM66 1h1v1h-1zM70 1h1v1h-1zM66 2h1v1h-1zM70 2h1v1h-1zM66 3h1v1h-1zM70 3h1v1h-1zM66 4h1v1h-1zM70 4h1v1h-1zM66 5h1v1h-1zM70 5h1v1h-1zM67 6h1v1h-1zM68 6h1v1h-1zM69 6h1v1h-1zM72 0h1v1h-1zM73 0h1v1h-1zM74 0h1v1h-1zM75 0h1v1h-1zM76 0h1v1h-1zM72 1h1v1h-1zM72 2h1v1h-1zM72 3h1v1h-1zM73 3h1v1h-1zM74 3h1v1h-1zM75 3h1v1h-1zM72 4h1v1h-1zM72 5h1v1h-1zM72 6h1v1h-1zM73 6h1v1h-1zM74 6h1v1h-1zM75 6h1v1h-1zM76 6h1v1h-1zM97 0h1v1h-1zM98 0h1v1h-1zM99 0h1v1h-1zM97 1h1v1h-1zM97 2h1v1h-1zM97 3h1v1h-1zM97 4h1v1h-1zM97 5h1v1h-1zM97 6h1v1h-1zM98 6h1v1h-1zM99 6h1v1h-1zM103 0h1v1h-1zM104 0h1v1h-1zM105 0h1v1h-1zM106 0h1v1h-1zM102 1h1v1h-1zM102 2h1v1h-1zM102 3h1v1h-1zM104 3h1v1h-1zM105 3h1v1h-1zM106 3h1v1h-1zM102 4h1v1h-1zM106 4h1v1h-1zM102 5h1v1h-1zM106 5h1v1h-1zM103 6h1v1h-1zM104 6h1v1h-1zM105 6h1v1h-1zM106 6h1v1h-1zM109 0h1v1h-1zM110 0h1v1h-1zM111 0h1v1h-1zM111 1h1v1h-1zM111 2h1v1h-1zM111 3h1v1h-1zM111 4h1v1h-1zM111 5h1v1h-1zM109 6h1v1h-1zM110 6h1v1h-1zM111 6h1v1h-1zM121 0h1v1h-1zM122 0h1v1h-1zM123 0h1v1h-1zM124 0h1v1h-1zM120 1h1v1h-1zM120 2h1v1h-1zM120 3h1v1h-1zM122 3h1v1h-1zM123 3h1v1h-1zM124 3h1v1h-1zM120 4h1v1h-1zM124 4h1v1h-1zM120 5h1v1h-1zM124 5h1v1h-1zM121 6h1v1h-1zM122 6h1v1h-1zM123 6h1v1h-1zM124 6h1v1h-1zM127 0h1v1h-1zM128 0h1v1h-1zM129 0h1v1h-1zM126 1h1v1h-1zM130 1h1v1h-1zM126 2h1v1h-1zM130 2h1v1h-1zM126 3h1v1h-1zM127 3h1v1h-1zM128 3h1v1h-1zM129 3h1v1h-1zM130 3h1v1h-1zM126 4h1v1h-1zM130 4h1v1h-1zM126 5h1v1h-1zM130 5h1v1h-1zM126 6h1v1h-1zM130 6h1v1h-1zM132 0h1v1h-1zM132 1h1v1h-1zM132 2h1v1h-1zM132 3h1v1h-1zM132 4h1v1h-1zM132 5h1v1h-1zM132 6h1v1h-1zM133 6h1v1h-1zM134 6h1v1h-1zM135 6h1v1h-1zM136 6h1v1h-1zM138 0h1v1h-1zM138 1h1v1h-1zM138 2h1v1h-1zM138 3h1v1h-1zM138 4h1v1h-1zM138 5h1v1h-1zM138 6h1v1h-1zM139 6h1v1h-1zM140 6h1v1h-1zM141 6h1v1h-1zM142 6h1v1h-1zM144 0h1v1h-1zM145 0h1v1h-1zM146 0h1v1h-1zM147 0h1v1h-1zM148 0h1v1h-1zM144 1h1v1h-1zM144 2h1v1h-1zM144 3h1v1h-1zM145 3h1v1h-1zM146 3h1v1h-1zM147 3h1v1h-1zM144 4h1v1h-1zM144 5h1v1h-1zM144 6h1v1h-1zM145 6h1v1h-1zM146 6h1v1h-1zM147 6h1v1h-1zM148 6h1v1h-1zM150 0h1v1h-1zM151 0h1v1h-1zM152 0h1v1h-1zM153 0h1v1h-1zM150 1h1v1h-1zM154 1h1v1h-1zM150 2h1v1h-1zM154 2h1v1h-1zM150 3h1v1h-1zM151 3h1v1h-1zM152 3h1v1h-1zM153 3h1v1h-1zM150 4h1v1h-1zM152 4h1v1h-1zM150 5h1v1h-1zM153 5h1v1h-1zM150 6h1v1h-1zM154 6h1v1h-1zM156 0h1v1h-1zM157 0h1v1h-1zM158 0h1v1h-1zM159 0h1v1h-1zM160 0h1v1h-1zM158 1h1v1h-1zM158 2h1v1h-1zM158 3h1v1h-1zM158 4h1v1h-1zM158 5h1v1h-1zM156 6h1v1h-1zM157 6h1v1h-1zM158 6h1v1h-1zM159 6h1v1h-1zM160 6h1v1h-1zM162 0h1v1h-1zM163 0h1v1h-1zM164 0h1v1h-1zM165 0h1v1h-1zM166 0h1v1h-1zM162 1h1v1h-1zM162 2h1v1h-1zM162 3h1v1h-1zM163 3h1v1h-1zM164 3h1v1h-1zM165 3h1v1h-1zM162 4h1v1h-1zM162 5h1v1h-1zM162 6h1v1h-1zM163 6h1v1h-1zM164 6h1v1h-1zM165 6h1v1h-1zM166 6h1v1h-1zM169 0h1v1h-1zM170 0h1v1h-1zM171 0h1v1h-1zM172 0h1v1h-1zM168 1h1v1h-1zM168 2h1v1h-1zM169 3h1v1h-1zM170 3h1v1h-1zM171 3h1v1h-1zM172 4h1v1h-1zM172 5h1v1h-1zM168 6h1v1h-1zM169 6h1v1h-1zM170 6h1v1h-1zM171 6h1v1h-1zM193 0h1v1h-1zM194 0h1v1h-1zM195 0h1v1h-1zM193 1h1v1h-1zM193 2h1v1h-1zM193 3h1v1h-1zM193 4h1v1h-1zM193 5h1v1h-1zM193 6h1v1h-1zM194 6h1v1h-1zM195 6h1v1h-1zM198 0h1v1h-1zM199 0h1v1h-1zM200 0h1v1h-1zM201 0h1v1h-1zM202 0h1v1h-1zM200 1h1v1h-1zM200 2h1v1h-1zM200 3h1v1h-1zM200 4h1v1h-1zM200 5h1v1h-1zM200 6h1v1h-1zM205 0h1v1h-1zM206 0h1v1h-1zM207 0h1v1h-1zM207 1h1v1h-1zM207 2h1v1h-1zM207 3h1v1h-1zM207 4h1v1h-1zM207 5h1v1h-1zM205 6h1v1h-1zM206 6h1v1h-1zM207 6h1v1h-1zM216 0h1v1h-1zM217 0h1v1h-1zM218 0h1v1h-1zM219 0h1v1h-1zM220 0h1v1h-1zM218 1h1v1h-1zM218 2h1v1h-1zM218 3h1v1h-1zM218 4h1v1h-1zM218 5h1v1h-1zM218 6h1v1h-1zM223 0h1v1h-1zM224 0h1v1h-1zM225 0h1v1h-1zM222 1h1v1h-1zM226 1h1v1h-1zM222 2h1v1h-1zM226 2h1v1h-1zM222 3h1v1h-1zM226 3h1v1h-1zM222 4h1v1h-1zM226 4h1v1h-1zM222 5h1v1h-1zM226 5h1v1h-1zM223 6h1v1h-1zM224 6h1v1h-1zM225 6h1v1h-1zM229 0h1v1h-1zM230 0h1v1h-1zM231 0h1v1h-1zM228 1h1v1h-1zM232 1h1v1h-1zM228 2h1v1h-1zM232 2h1v1h-1zM228 3h1v1h-1zM232 3h1v1h-1zM228 4h1v1h-1zM232 4h1v1h-1zM228 5h1v1h-1zM232 5h1v1h-1zM229 6h1v1h-1zM230 6h1v1h-1zM231 6h1v1h-1zM234 0h1v1h-1zM234 1h1v1h-1zM234 2h1v1h-1zM234 3h1v1h-1zM234 4h1v1h-1zM234 5h1v1h-1zM234 6h1v1h-1zM235 6h1v1h-1zM236 6h1v1h-1zM237 6h1v1h-1zM238 6h1v1h-1zM241 0h1v1h-1zM242 0h1v1h-1zM243 0h1v1h-1zM244 0h1v1h-1zM240 1h1v1h-1zM240 2h1v1h-1zM241 3h1v1h-1zM242 3h1v1h-1zM243 3h1v1h-1zM244 4h1v1h-1zM244 5h1v1h-1zM240 6h1v1h-1zM241 6h1v1h-1zM242 6h1v1h-1zM243 6h1v1h-1zM265 0h1v1h-1zM266 0h1v1h-1zM267 0h1v1h-1zM265 1h1v1h-1zM265 2h1v1h-1zM265 3h1v1h-1zM265 4h1v1h-1zM265 5h1v1h-1zM265 6h1v1h-1zM266 6h1v1h-1zM267 6h1v1h-1zM270 0h1v1h-1zM270 1h1v1h-1zM270 2h1v1h-1zM270 3h1v1h-1zM270 4h1v1h-1zM270 5h1v1h-1zM270 6h1v1h-1zM271 6h1v1h-1zM272 6h1v1h-1zM273 6h1v1h-1zM274 6h1v1h-1zM277 0h1v1h-1zM278 0h1v1h-1zM279 0h1v1h-1zM279 1h1v1h-1zM279 2h1v1h-1zM279 3h1v1h-1zM279 4h1v1h-1zM279 5h1v1h-1zM277 6h1v1h-1zM278 6h1v1h-1zM279 6h1v1h-1zM288 0h1v1h-1zM288 1h1v1h-1zM288 2h1v1h-1zM288 3h1v1h-1zM288 4h1v1h-1zM288 5h1v1h-1zM288 6h1v1h-1zM289 6h1v1h-1zM290 6h1v1h-1zM291 6h1v1h-1zM292 6h1v1h-1zM294 0h1v1h-1zM295 0h1v1h-1zM296 0h1v1h-1zM297 0h1v1h-1zM298 0h1v1h-1zM296 1h1v1h-1zM296 2h1v1h-1zM296 3h1v1h-1zM296 4h1v1h-1zM296 5h1v1h-1zM294 6h1v1h-1zM295 6h1v1h-1zM296 6h1v1h-1zM297 6h1v1h-1zM298 6h1v1h-1zM301 0h1v1h-1zM302 0h1v1h-1zM303 0h1v1h-1zM304 0h1v1h-1zM300 1h1v1h-1zM300 2h1v1h-1zM300 3h1v1h-1zM300 4h1v1h-1zM300 5h1v1h-1zM301 6h1v1h-1zM302 6h1v1h-1zM303 6h1v1h-1zM304 6h1v1h-1zM306 0h1v1h-1zM307 0h1v1h-1zM308 0h1v1h-1zM309 0h1v1h-1zM310 0h1v1h-1zM306 1h1v1h-1zM306 2h1v1h-1zM306 3h1v1h-1zM307 3h1v1h-1zM308 3h1v1h-1zM309 3h1v1h-1zM306 4h1v1h-1zM306 5h1v1h-1zM306 6h1v1h-1zM307 6h1v1h-1zM308 6h1v1h-1zM309 6h1v1h-1zM310 6h1v1h-1zM312 0h1v1h-1zM316 0h1v1h-1zM312 1h1v1h-1zM313 1h1v1h-1zM316 1h1v1h-1zM312 2h1v1h-1zM313 2h1v1h-1zM316 2h1v1h-1zM312 3h1v1h-1zM314 3h1v1h-1zM316 3h1v1h-1zM312 4h1v1h-1zM315 4h1v1h-1zM316 4h1v1h-1zM312 5h1v1h-1zM315 5h1v1h-1zM316 5h1v1h-1zM312 6h1v1h-1zM316 6h1v1h-1zM319 0h1v1h-1zM320 0h1v1h-1zM321 0h1v1h-1zM322 0h1v1h-1zM318 1h1v1h-1zM318 2h1v1h-1zM318 3h1v1h-1zM318 4h1v1h-1zM318 5h1v1h-1zM319 6h1v1h-1zM320 6h1v1h-1zM321 6h1v1h-1zM322 6h1v1h-1zM324 0h1v1h-1zM325 0h1v1h-1zM326 0h1v1h-1zM327 0h1v1h-1zM328 0h1v1h-1zM324 1h1v1h-1zM324 2h1v1h-1zM324 3h1v1h-1zM325 3h1v1h-1zM326 3h1v1h-1zM327 3h1v1h-1zM324 4h1v1h-1zM324 5h1v1h-1zM324 6h1v1h-1zM325 6h1v1h-1zM326 6h1v1h-1zM327 6h1v1h-1zM328 6h1v1h-1z" fill="#e8db6d"/></g><g transform="translate(39 399) scale(1.9)" ><path d="M1 0h1v1h-1zM2 0h1v1h-1zM3 0h1v1h-1zM4 0h1v1h-1zM0 1h1v1h-1zM0 2h1v1h-1zM0 3h1v1h-1zM0 4h1v1h-1zM0 5h1v1h-1zM1 6h1v1h-1zM2 6h1v1h-1zM3 6h1v1h-1zM4 6h1v1h-1zM7 0h1v1h-1zM8 0h1v1h-1zM9 0h1v1h-1zM6 1h1v1h-1zM10 1h1v1h-1zM6 2h1v1h-1zM10 2h1v1h-1zM6 3h1v1h-1zM10 3h1v1h-1zM6 4h1v1h-1zM10 4h1v1h-1zM6 5h1v1h-1zM10 5h1v1h-1zM7 6h1v1h-1zM8 6h1v1h-1zM9 6h1v1h-1zM12 0h1v1h-1zM16 0h1v1h-1zM12 1h1v1h-1zM13 1h1v1h-1zM15 1h1v1h-1zM16 1h1v1h-1zM12 2h1v1h-1zM14 2h1v1h-1zM16 2h1v1h-1zM12 3h1v1h-1zM14 3h1v1h-1zM16 3h1v1h-1zM12 4h1v1h-1zM16 4h1v1h-1zM12 5h1v1h-1zM16 5h1v1h-1zM12 6h1v1h-1zM16 6h1v1h-1zM18 0h1v1h-1zM22 0h1v1h-1zM18 1h1v1h-1zM19 1h1v1h-1zM21 1h1v1h-1zM22 1h1v1h-1zM18 2h1v1h-1zM20 2h1v1h-1zM22 2h1v1h-1zM18 3h1v1h-1zM20 3h1v1h-1zM22 3h1v1h-1zM18 4h1v1h-1zM22 4h1v1h-1zM18 5h1v1h-1zM22 5h1v1h-1zM18 6h1v1h-1zM22 6h1v1h-1zM25 0h1v1h-1zM26 0h1v1h-1zM27 0h1v1h-1zM24 1h1v1h-1zM28 1h1v1h-1zM24 2h1v1h-1zM28 2h1v1h-1zM24 3h1v1h-1zM25 3h1v1h-1zM26 3h1v1h-1zM27 3h1v1h-1zM28 3h1v1h-1zM24 4h1v1h-1zM28 4h1v1h-1zM24 5h1v1h-1zM28 5h1v1h-1zM24 6h1v1h-1zM28 6h1v1h-1zM30 0h1v1h-1zM34 0h1v1h-1zM30 1h1v1h-1zM31 1h1v1h-1zM34 1h1v1h-1zM30 2h1v1h-1zM31 2h1v1h-1zM34 2h1v1h-1zM30 3h1v1h-1zM32 3h1v1h-1zM34 3h1v1h-1zM30 4h1v1h-1zM33 4h1v1h-1zM34 4h1v1h-1zM30 5h1v1h-1zM33 5h1v1h-1zM34 5h1v1h-1zM30 6h1v1h-1zM34 6h1v1h-1zM36 0h1v1h-1zM37 0h1v1h-1zM38 0h1v1h-1zM39 0h1v1h-1zM36 1h1v1h-1zM40 1h1v1h-1zM36 2h1v1h-1zM40 2h1v1h-1zM36 3h1v1h-1zM40 3h1v1h-1zM36 4h1v1h-1zM40 4h1v1h-1zM36 5h1v1h-1zM40 5h1v1h-1zM36 6h1v1h-1zM37 6h1v1h-1zM38 6h1v1h-1zM39 6h1v1h-1zM49 0h1v1h-1zM50 0h1v1h-1zM51 0h1v1h-1zM49 1h1v1h-1zM49 2h1v1h-1zM49 3h1v1h-1zM49 4h1v1h-1zM49 5h1v1h-1zM49 6h1v1h-1zM50 6h1v1h-1zM51 6h1v1h-1zM54 0h1v1h-1zM55 0h1v1h-1zM56 0h1v1h-1zM57 0h1v1h-1zM54 1h1v1h-1zM58 1h1v1h-1zM54 2h1v1h-1zM58 2h1v1h-1zM54 3h1v1h-1zM55 3h1v1h-1zM56 3h1v1h-1zM57 3h1v1h-1zM54 4h1v1h-1zM56 4h1v1h-1zM54 5h1v1h-1zM57 5h1v1h-1zM54 6h1v1h-1zM58 6h1v1h-1zM60 0h1v1h-1zM61 0h1v1h-1zM62 0h1v1h-1zM63 0h1v1h-1zM64 0h1v1h-1zM60 1h1v1h-1zM60 2h1v1h-1zM60 3h1v1h-1zM61 3h1v1h-1zM62 3h1v1h-1zM63 3h1v1h-1zM60 4h1v1h-1zM60 5h1v1h-1zM60 6h1v1h-1zM61 6h1v1h-1zM62 6h1v1h-1zM63 6h1v1h-1zM64 6h1v1h-1zM67 0h1v1h-1zM68 0h1v1h-1zM69 0h1v1h-1zM66 1h1v1h-1zM70 1h1v1h-1zM66 2h1v1h-1zM70 2h1v1h-1zM66 3h1v1h-1zM67 3h1v1h-1zM68 3h1v1h-1zM69 3h1v1h-1zM70 3h1v1h-1zM66 4h1v1h-1zM70 4h1v1h-1zM66 5h1v1h-1zM70 5h1v1h-1zM66 6h1v1h-1zM70 6h1v1h-1zM72 0h1v1h-1zM73 0h1v1h-1zM74 0h1v1h-1zM75 0h1v1h-1zM72 1h1v1h-1zM76 1h1v1h-1zM72 2h1v1h-1zM76 2h1v1h-1zM72 3h1v1h-1zM76 3h1v1h-1zM72 4h1v1h-1zM76 4h1v1h-1zM72 5h1v1h-1zM76 5h1v1h-1zM72 6h1v1h-1zM73 6h1v1h-1zM74 6h1v1h-1zM75 6h1v1h-1zM84 0h1v1h-1zM88 0h1v1h-1zM84 1h1v1h-1zM85 1h1v1h-1zM87 1h1v1h-1zM88 1h1v1h-1zM84 2h1v1h-1zM86 2h1v1h-1zM88 2h1v1h-1zM84 3h1v1h-1zM86 3h1v1h-1zM88 3h1v1h-1zM84 4h1v1h-1zM88 4h1v1h-1zM84 5h1v1h-1zM88 5h1v1h-1zM84 6h1v1h-1zM88 6h1v1h-1zM90 0h1v1h-1zM91 0h1v1h-1zM92 0h1v1h-1zM93 0h1v1h-1zM94 0h1v1h-1zM90 1h1v1h-1zM90 2h1v1h-1zM90 3h1v1h-1zM91 3h1v1h-1zM92 3h1v1h-1zM93 3h1v1h-1zM90 4h1v1h-1zM90 5h1v1h-1zM90 6h1v1h-1zM91 6h1v1h-1zM92 6h1v1h-1zM93 6h1v1h-1zM94 6h1v1h-1zM97 0h1v1h-1zM98 0h1v1h-1zM99 0h1v1h-1zM99 1h1v1h-1zM99 2h1v1h-1zM99 3h1v1h-1zM99 4h1v1h-1zM99 5h1v1h-1zM97 6h1v1h-1zM98 6h1v1h-1zM99 6h1v1h-1zM103 1h1v1h-1zM104 1h1v1h-1zM103 2h1v1h-1zM104 2h1v1h-1zM103 4h1v1h-1zM104 4h1v1h-1zM103 5h1v1h-1zM104 5h1v1h-1z" fill="#d588ca"/></g><rect class="cursor" x="263" y="399" width="12" height="14" fill="#d588ca"/></svg>
